<?xml version="1.0" encoding="UTF-8"?> <svg xmlns="http://www.w3.org/2000/svg" viewBox="0 0 225.68 246.58"><defs><style> .cls-1 { fill: #fff; } .cls-2, .cls-3 { fill: #1ea482; } .cls-4, .cls-5 { fill: #2f3f4e; } .cls-5, .cls-3, .cls-6, .cls-7, .cls-8, .cls-9 { mix-blend-mode: multiply; } .cls-6 { fill: #af45f4; } .cls-7 { fill: #ff7600; } .cls-8 { fill: #007eab; } .cls-9 { fill: #f4ba16; } .cls-10 { isolation: isolate; } </style></defs><g class="cls-10"><g id="Layer_2" data-name="Layer 2"><g id="Finalised_Versions" data-name="Finalised Versions"><g id="Layer_13" data-name="Layer 13"><path class="cls-1" d="M203.3,123.29c21.44-12.56,28.76-40.09,16.31-61.64-12.44-21.55-39.94-28.99-61.54-16.69-.15-24.85-20.34-44.95-45.23-44.95s-45.07,20.1-45.23,44.95c-21.6-12.29-49.1-4.86-61.54,16.69C-6.38,83.2,.94,110.73,22.38,123.29,.94,135.85-6.38,163.38,6.07,184.93c12.44,21.55,39.94,28.99,61.54,16.69,.15,24.85,20.34,44.95,45.23,44.95s45.07-20.1,45.23-44.95c21.6,12.29,49.1,4.86,61.54-16.69,12.44-21.55,5.13-49.09-16.31-61.64Z"></path><circle class="cls-5" cx="112.84" cy="45.24" r="45.24"></circle><circle class="cls-3" cx="112.84" cy="201.34" r="45.24"></circle><circle class="cls-7" cx="45.24" cy="84.26" r="45.24"></circle><circle class="cls-6" cx="180.44" cy="162.32" r="45.24"></circle><circle class="cls-9" cx="45.24" cy="162.32" r="45.24"></circle><circle class="cls-8" cx="180.44" cy="84.26" r="45.24"></circle><polygon class="cls-1" points="169.41 90.97 113.06 58.43 56.7 90.97 56.68 156.04 113.06 188.58 169.41 156.04 169.41 90.97"></polygon><g><g><polygon class="cls-2" points="95.25 83.93 112.84 73.78 112.84 94.08 95.25 83.93"></polygon><polygon class="cls-4" points="112.84 94.08 112.84 73.78 130.43 83.93 112.84 94.08"></polygon></g><g><polygon class="cls-2" points="130.43 162.65 112.84 172.8 112.84 152.5 130.43 162.65"></polygon><polygon class="cls-4" points="112.84 152.5 112.84 172.8 95.25 162.65 112.84 152.5"></polygon></g></g><g><path class="cls-4" d="M84.52,119.48v-13.15h8.72v2.54h-5.86v2.67h4.99v2.54h-4.99v5.39h-2.86Z"></path><path class="cls-4" d="M96.41,108.54c-.57,0-.98-.13-1.23-.39-.26-.26-.39-.59-.39-.99v-.42c0-.4,.13-.73,.39-.99,.26-.26,.67-.39,1.23-.39s.98,.13,1.23,.39c.26,.26,.39,.59,.39,.99v.42c0,.4-.13,.73-.39,.99-.26,.26-.67,.39-1.23,.39Zm-1.39,1.05h2.79v9.89h-2.79v-9.89Z"></path><path class="cls-4" d="M100.02,119.48v-9.89h2.79v1.68h.11c.18-.51,.48-.96,.92-1.34s1.05-.56,1.83-.56c1.02,0,1.79,.34,2.31,1.02,.52,.68,.78,1.65,.78,2.9v6.2h-2.79v-5.97c0-.64-.1-1.11-.3-1.42s-.56-.46-1.07-.46c-.23,0-.45,.03-.66,.08-.21,.06-.4,.15-.57,.27-.17,.12-.3,.28-.4,.46-.1,.18-.15,.39-.15,.63v6.4h-2.79Z"></path><path class="cls-4" d="M116.3,119.71c-.87,0-1.66-.14-2.37-.43-.72-.29-1.32-.72-1.83-1.29-.5-.57-.89-1.28-1.17-2.13-.28-.85-.41-1.83-.41-2.95s.14-2.1,.41-2.95c.28-.85,.67-1.56,1.17-2.13s1.11-1,1.83-1.29c.72-.29,1.51-.43,2.37-.43s1.66,.14,2.37,.43c.72,.29,1.32,.72,1.83,1.29s.89,1.28,1.17,2.13c.28,.85,.41,1.83,.41,2.95s-.14,2.1-.41,2.95c-.28,.85-.67,1.56-1.17,2.13-.5,.57-1.11,1-1.83,1.29-.72,.29-1.51,.43-2.37,.43Zm0-2.54c.87,0,1.54-.28,2.02-.85,.48-.56,.73-1.38,.73-2.43v-1.96c0-1.05-.24-1.87-.73-2.43-.48-.57-1.16-.85-2.02-.85s-1.54,.28-2.02,.85c-.48,.56-.73,1.38-.73,2.43v1.96c0,1.05,.24,1.87,.73,2.43,.48,.57,1.16,.85,2.02,.85Z"></path><path class="cls-4" d="M123.94,109.59h2.79v1.66h.09c.14-.55,.46-1,.95-1.36s1.06-.53,1.71-.53c1.26,0,2.2,.44,2.84,1.32s.96,2.16,.96,3.84-.32,2.97-.96,3.85c-.64,.89-1.59,1.33-2.84,1.33-.33,0-.63-.05-.92-.14-.29-.09-.55-.23-.78-.4-.23-.17-.43-.37-.59-.6s-.28-.48-.36-.74h-.09v5.43h-2.79v-13.66Zm4.61,7.86c.53,0,.96-.19,1.31-.56,.35-.37,.52-.87,.52-1.5v-1.71c0-.63-.17-1.13-.52-1.5-.35-.37-.78-.56-1.31-.56s-.96,.13-1.31,.39c-.35,.26-.52,.61-.52,1.06v2.92c0,.45,.17,.81,.52,1.06,.35,.26,.78,.39,1.31,.39Z"></path><path class="cls-4" d="M138.37,119.71c-.95,0-1.76-.15-2.41-.46-.65-.31-1.24-.74-1.75-1.31l1.64-1.66c.35,.39,.74,.7,1.17,.92,.43,.23,.91,.34,1.45,.34s.94-.08,1.15-.25c.21-.17,.32-.4,.32-.69,0-.46-.33-.74-1-.83l-1.07-.13c-2.22-.28-3.33-1.29-3.33-3.05,0-.48,.09-.91,.27-1.31s.44-.73,.77-1.02c.33-.28,.73-.5,1.21-.66,.47-.16,1-.24,1.59-.24,.51,0,.97,.03,1.37,.1s.75,.17,1.05,.3c.31,.13,.59,.3,.85,.49s.51,.41,.76,.65l-1.6,1.64c-.31-.31-.67-.56-1.06-.74-.4-.18-.8-.27-1.22-.27-.48,0-.82,.08-1.02,.23-.2,.15-.3,.35-.3,.6s.07,.47,.22,.61c.14,.14,.42,.25,.82,.31l1.11,.15c2.17,.29,3.26,1.28,3.26,2.98,0,.48-.1,.92-.3,1.32-.2,.4-.49,.75-.86,1.04-.37,.3-.82,.52-1.34,.69s-1.1,.25-1.74,.25Z"></path><path class="cls-4" d="M71.91,138.48v-13.15h6.22c.62,0,1.17,.1,1.66,.31,.49,.21,.91,.49,1.25,.86,.35,.36,.61,.81,.8,1.33s.28,1.09,.28,1.71-.09,1.2-.28,1.71-.46,.95-.8,1.32c-.35,.36-.76,.65-1.25,.86-.49,.21-1.04,.31-1.66,.31h-3.35v4.75h-2.86Zm2.86-7.23h3.01c.43,0,.76-.11,1.01-.33,.24-.22,.37-.54,.37-.97v-.83c0-.43-.12-.75-.37-.97-.25-.22-.58-.33-1.01-.33h-3.01v3.43Z"></path><path class="cls-4" d="M83.55,138.48v-9.89h2.79v2.15h.09c.05-.28,.14-.54,.26-.8,.13-.26,.29-.49,.5-.69,.21-.2,.46-.36,.74-.48,.29-.12,.63-.18,1.02-.18h.49v2.6h-.7c-.82,0-1.42,.11-1.82,.32-.4,.21-.59,.61-.59,1.19v5.78h-2.79Z"></path><path class="cls-4" d="M92.18,127.54c-.57,0-.98-.13-1.23-.39-.26-.26-.39-.59-.39-.99v-.42c0-.4,.13-.73,.39-.99,.26-.26,.67-.39,1.23-.39s.98,.13,1.23,.39c.26,.26,.39,.59,.39,.99v.42c0,.4-.13,.73-.39,.99-.26,.26-.67,.39-1.23,.39Zm-1.39,1.05h2.79v9.89h-2.79v-9.89Z"></path><path class="cls-4" d="M95.79,138.48v-9.89h2.79v1.68h.11c.18-.51,.48-.96,.92-1.34s1.05-.56,1.83-.56c1.02,0,1.79,.34,2.31,1.02,.52,.68,.78,1.65,.78,2.9v6.2h-2.79v-5.97c0-.64-.1-1.11-.3-1.42s-.56-.46-1.07-.46c-.23,0-.45,.03-.66,.08-.21,.06-.4,.15-.57,.27-.17,.12-.3,.28-.4,.46-.1,.18-.15,.39-.15,.63v6.4h-2.79Z"></path><path class="cls-4" d="M110.64,138.71c-.74,0-1.4-.12-1.98-.37-.58-.25-1.06-.59-1.45-1.04-.39-.45-.68-.99-.89-1.63-.2-.64-.3-1.36-.3-2.15s.1-1.5,.3-2.14c.2-.63,.5-1.18,.89-1.63s.87-.8,1.45-1.04c.58-.24,1.24-.36,1.98-.36,1,0,1.84,.23,2.52,.68,.67,.45,1.15,1.09,1.44,1.9l-2.26,.98c-.09-.38-.27-.7-.55-.96-.28-.26-.66-.4-1.15-.4-.56,0-.99,.19-1.28,.56-.29,.37-.43,.87-.43,1.5v1.85c0,.63,.14,1.12,.43,1.49,.29,.36,.72,.55,1.28,.55,.5,0,.9-.13,1.2-.4,.29-.27,.51-.62,.65-1.06l2.17,.94c-.33,.94-.83,1.63-1.52,2.07-.68,.44-1.52,.66-2.5,.66Z"></path><path class="cls-4" d="M117.4,127.54c-.57,0-.98-.13-1.23-.39-.26-.26-.39-.59-.39-.99v-.42c0-.4,.13-.73,.39-.99,.26-.26,.67-.39,1.23-.39s.98,.13,1.23,.39c.26,.26,.39,.59,.39,.99v.42c0,.4-.13,.73-.39,.99-.26,.26-.67,.39-1.23,.39Zm-1.39,1.05h2.79v9.89h-2.79v-9.89Z"></path><path class="cls-4" d="M121.02,128.59h2.79v1.66h.09c.14-.55,.46-1,.95-1.36s1.06-.53,1.71-.53c1.26,0,2.2,.44,2.84,1.32s.96,2.16,.96,3.84-.32,2.97-.96,3.85c-.64,.89-1.59,1.33-2.84,1.33-.33,0-.63-.05-.92-.14-.29-.09-.55-.23-.78-.4-.23-.17-.43-.37-.59-.6s-.28-.48-.36-.74h-.09v5.43h-2.79v-13.66Zm4.61,7.86c.53,0,.96-.19,1.31-.56,.35-.37,.52-.87,.52-1.5v-1.71c0-.63-.17-1.13-.52-1.5-.35-.37-.78-.56-1.31-.56s-.96,.13-1.31,.39c-.35,.26-.52,.61-.52,1.06v2.92c0,.45,.17,.81,.52,1.06,.35,.26,.78,.39,1.31,.39Z"></path><path class="cls-4" d="M134.86,138.48c-.95,0-1.65-.23-2.1-.7s-.67-1.14-.67-2.02v-11.23h2.79v11.77h1.24v2.17h-1.26Z"></path><path class="cls-4" d="M141.55,138.71c-.75,0-1.43-.12-2.02-.37-.59-.25-1.09-.59-1.5-1.04-.41-.45-.72-.99-.92-1.63-.21-.64-.31-1.36-.31-2.15s.1-1.49,.3-2.12c.2-.63,.5-1.18,.9-1.63,.4-.45,.88-.8,1.46-1.04,.58-.25,1.24-.37,1.98-.37,.82,0,1.52,.14,2.1,.41s1.06,.65,1.43,1.11,.64,1,.81,1.61c.17,.61,.25,1.25,.25,1.91v.83h-6.35v.15c0,.65,.18,1.16,.53,1.54s.9,.57,1.66,.57c.58,0,1.05-.11,1.41-.34,.36-.23,.7-.51,1.02-.83l1.39,1.74c-.44,.52-1.01,.92-1.72,1.21-.71,.29-1.52,.43-2.42,.43Zm-.06-8.29c-.57,0-1.01,.19-1.33,.56-.32,.37-.48,.86-.48,1.48v.15h3.47v-.17c0-.6-.14-1.09-.41-1.46-.27-.37-.69-.56-1.25-.56Z"></path><path class="cls-4" d="M150.99,138.71c-.95,0-1.76-.15-2.41-.46-.65-.31-1.24-.74-1.75-1.31l1.64-1.66c.35,.39,.74,.7,1.17,.92,.43,.23,.91,.34,1.45,.34s.94-.08,1.15-.25c.21-.17,.32-.4,.32-.69,0-.46-.33-.74-1-.83l-1.07-.13c-2.22-.28-3.33-1.29-3.33-3.05,0-.48,.09-.91,.27-1.31s.44-.73,.77-1.02c.33-.28,.73-.5,1.21-.66,.47-.16,1-.24,1.59-.24,.51,0,.97,.03,1.37,.1s.75,.17,1.05,.3c.31,.13,.59,.3,.85,.49s.51,.41,.76,.65l-1.6,1.64c-.31-.31-.67-.56-1.06-.74-.4-.18-.8-.27-1.22-.27-.48,0-.82,.08-1.02,.23-.2,.15-.3,.35-.3,.6s.07,.47,.22,.61c.14,.14,.42,.25,.82,.31l1.11,.15c2.17,.29,3.26,1.28,3.26,2.98,0,.48-.1,.92-.3,1.32-.2,.4-.49,.75-.86,1.04-.37,.3-.82,.52-1.34,.69s-1.1,.25-1.74,.25Z"></path></g><g><g><path class="cls-1" d="M90.67,28.43v5.07h-1.37v-5.07h-1.7v-1.22h4.77v1.22h-1.7Z"></path><path class="cls-1" d="M94.62,33.61c-.36,0-.68-.06-.96-.18-.28-.12-.52-.28-.72-.5-.2-.21-.34-.47-.44-.78-.1-.31-.15-.65-.15-1.03s.05-.71,.14-1.01c.1-.3,.24-.56,.43-.78,.19-.22,.42-.38,.7-.5,.28-.12,.59-.18,.95-.18,.39,0,.72,.07,1,.2,.28,.13,.51,.31,.68,.53,.18,.22,.31,.48,.39,.77,.08,.29,.12,.6,.12,.91v.4h-3.03v.07c0,.31,.08,.56,.25,.74,.17,.18,.43,.27,.79,.27,.28,0,.5-.06,.67-.17,.17-.11,.34-.24,.49-.4l.67,.83c-.21,.25-.48,.44-.82,.58s-.72,.21-1.16,.21Zm-.03-3.96c-.27,0-.48,.09-.63,.27-.15,.18-.23,.41-.23,.71v.07h1.66v-.08c0-.29-.06-.52-.19-.7-.13-.18-.33-.27-.6-.27Z"></path><path class="cls-1" d="M101.2,33.5c-.24,0-.44-.08-.6-.23-.16-.15-.26-.35-.3-.6h-.05c-.07,.31-.23,.54-.48,.7-.25,.16-.55,.24-.91,.24-.47,0-.84-.13-1.09-.38-.25-.25-.38-.58-.38-1,0-.5,.18-.87,.54-1.11,.36-.24,.86-.36,1.48-.36h.75v-.3c0-.23-.06-.41-.18-.54-.12-.13-.32-.2-.6-.2-.26,0-.47,.06-.63,.17-.16,.11-.29,.24-.39,.39l-.79-.71c.19-.28,.43-.51,.72-.67,.29-.16,.69-.24,1.18-.24,.67,0,1.18,.15,1.51,.44,.34,.29,.5,.72,.5,1.29v2.07h.44v1.04h-.74Zm-1.84-.82c.22,0,.41-.05,.57-.14,.16-.1,.24-.25,.24-.46v-.55h-.65c-.52,0-.78,.18-.78,.53v.13c0,.17,.05,.3,.16,.38s.26,.12,.46,.12Z"></path><path class="cls-1" d="M102.82,33.5v-4.73h1.33v.8h.05c.08-.25,.23-.47,.43-.64,.2-.18,.48-.27,.84-.27,.32,0,.6,.08,.83,.24,.23,.16,.39,.4,.5,.71h.03c.04-.13,.11-.26,.19-.37,.09-.12,.19-.22,.32-.3,.13-.08,.27-.15,.42-.2,.16-.05,.32-.08,.5-.08,.46,0,.81,.16,1.05,.49,.24,.32,.36,.79,.36,1.39v2.96h-1.33v-2.85c0-.6-.22-.9-.65-.9-.2,0-.38,.06-.54,.17-.16,.11-.24,.29-.24,.52v3.06h-1.33v-2.85c0-.6-.22-.9-.65-.9-.1,0-.19,.01-.28,.04-.09,.03-.18,.07-.25,.13-.08,.06-.14,.13-.18,.22s-.07,.19-.07,.3v3.06h-1.33Z"></path><path class="cls-1" d="M112.47,33.61c-.46,0-.84-.07-1.15-.22s-.59-.36-.84-.63l.78-.79c.17,.19,.35,.33,.56,.44,.2,.11,.43,.16,.69,.16s.45-.04,.55-.12,.15-.19,.15-.33c0-.22-.16-.35-.48-.4l-.51-.06c-1.06-.13-1.59-.62-1.59-1.46,0-.23,.04-.44,.13-.63s.21-.35,.37-.49c.16-.14,.35-.24,.58-.32,.23-.07,.48-.11,.76-.11,.25,0,.46,.02,.65,.05,.19,.03,.36,.08,.5,.14s.28,.14,.41,.23c.12,.09,.24,.2,.36,.31l-.77,.78c-.15-.15-.32-.27-.51-.36s-.38-.13-.58-.13c-.23,0-.39,.04-.49,.11-.1,.07-.14,.17-.14,.29s.03,.22,.1,.29c.07,.07,.2,.12,.39,.15l.53,.07c1.04,.14,1.56,.61,1.56,1.42,0,.23-.05,.44-.14,.63-.1,.19-.23,.36-.41,.5-.18,.14-.39,.25-.64,.33-.25,.08-.53,.12-.83,.12Z"></path><path class="cls-1" d="M117.53,33.5v-4.73h1.33v.8h.05c.08-.25,.23-.46,.44-.64,.21-.18,.5-.27,.87-.27,.49,0,.85,.16,1.1,.49,.25,.32,.37,.79,.37,1.39v2.96h-1.33v-2.85c0-.31-.05-.53-.14-.68-.1-.15-.27-.22-.51-.22-.11,0-.21,.01-.31,.04-.1,.03-.19,.07-.27,.13-.08,.06-.15,.13-.19,.22s-.07,.19-.07,.3v3.06h-1.33Z"></path><path class="cls-1" d="M124.87,33.61c-.36,0-.68-.06-.96-.18-.28-.12-.52-.28-.72-.5-.2-.21-.34-.47-.44-.78-.1-.31-.15-.65-.15-1.03s.05-.71,.14-1.01c.1-.3,.24-.56,.43-.78,.19-.22,.42-.38,.7-.5,.28-.12,.59-.18,.95-.18,.39,0,.72,.07,1,.2,.28,.13,.51,.31,.68,.53,.18,.22,.31,.48,.39,.77,.08,.29,.12,.6,.12,.91v.4h-3.03v.07c0,.31,.08,.56,.25,.74,.17,.18,.43,.27,.79,.27,.28,0,.5-.06,.67-.17,.17-.11,.34-.24,.49-.4l.67,.83c-.21,.25-.48,.44-.82,.58s-.72,.21-1.16,.21Zm-.03-3.96c-.27,0-.48,.09-.63,.27-.15,.18-.23,.41-.23,.71v.07h1.66v-.08c0-.29-.06-.52-.19-.7-.13-.18-.33-.27-.6-.27Z"></path><path class="cls-1" d="M129.92,33.61c-.36,0-.68-.06-.96-.18-.28-.12-.52-.28-.72-.5-.2-.21-.34-.47-.44-.78-.1-.31-.15-.65-.15-1.03s.05-.71,.14-1.01c.1-.3,.24-.56,.43-.78,.19-.22,.42-.38,.7-.5,.28-.12,.59-.18,.95-.18,.39,0,.72,.07,1,.2,.28,.13,.51,.31,.68,.53,.18,.22,.31,.48,.39,.77,.08,.29,.12,.6,.12,.91v.4h-3.03v.07c0,.31,.08,.56,.25,.74,.17,.18,.43,.27,.79,.27,.28,0,.5-.06,.67-.17,.17-.11,.34-.24,.49-.4l.67,.83c-.21,.25-.48,.44-.82,.58s-.72,.21-1.16,.21Zm-.03-3.96c-.27,0-.48,.09-.63,.27-.15,.18-.23,.41-.23,.71v.07h1.66v-.08c0-.29-.06-.52-.19-.7-.13-.18-.33-.27-.6-.27Z"></path><path class="cls-1" d="M135.91,32.71h-.04c-.04,.13-.09,.24-.17,.36-.08,.11-.17,.21-.28,.29-.11,.08-.24,.14-.38,.19-.14,.04-.29,.07-.44,.07-.6,0-1.05-.21-1.36-.63-.31-.42-.46-1.04-.46-1.84s.15-1.42,.46-1.84c.31-.42,.76-.63,1.36-.63,.31,0,.58,.08,.81,.25,.24,.17,.39,.38,.45,.65h.04v-2.73h1.33v6.66h-1.33v-.79Zm-.87-.18c.25,0,.46-.06,.63-.18,.17-.12,.25-.29,.25-.51v-1.4c0-.22-.08-.39-.25-.51s-.37-.18-.63-.18-.46,.09-.63,.27c-.17,.18-.25,.42-.25,.72v.82c0,.3,.08,.54,.25,.72,.17,.18,.37,.27,.63,.27Z"></path><path class="cls-1" d="M85.69,44.3c-.46,0-.81-.12-1.05-.35-.24-.23-.36-.58-.36-1.03v-2.31h-.67v-1.04h.33c.18,0,.3-.04,.37-.13,.07-.09,.1-.21,.1-.37v-.77h1.2v1.28h.94v1.04h-.94v2.65h.86v1.04h-.79Z"></path><path class="cls-1" d="M89.36,44.41c-.35,0-.66-.06-.93-.17s-.5-.28-.69-.5c-.19-.22-.33-.48-.44-.78-.1-.31-.15-.65-.15-1.03s.05-.72,.15-1.03,.25-.57,.44-.78,.42-.38,.69-.49c.27-.11,.58-.17,.93-.17s.66,.06,.93,.17c.27,.11,.5,.28,.69,.49s.33,.47,.44,.78,.15,.65,.15,1.03-.05,.72-.15,1.03c-.1,.31-.25,.57-.44,.78-.19,.22-.42,.38-.69,.5-.27,.11-.58,.17-.93,.17Zm0-1.05c.26,0,.47-.08,.61-.24s.22-.39,.22-.69v-.96c0-.3-.07-.53-.22-.69s-.35-.24-.61-.24-.47,.08-.61,.24c-.14,.16-.22,.39-.22,.69v.96c0,.3,.07,.53,.22,.69,.14,.16,.35,.24,.61,.24Z"></path><path class="cls-1" d="M96.55,44.41c-.35,0-.67-.06-.94-.18-.28-.12-.51-.28-.69-.5s-.33-.47-.42-.78c-.1-.31-.14-.65-.14-1.03s.05-.72,.14-1.02c.1-.3,.24-.56,.42-.78s.42-.38,.69-.5c.28-.11,.59-.17,.94-.17,.48,0,.88,.11,1.2,.32,.32,.22,.55,.52,.69,.91l-1.08,.47c-.04-.18-.13-.33-.26-.46-.13-.13-.31-.19-.55-.19-.27,0-.47,.09-.61,.27-.14,.18-.21,.42-.21,.72v.88c0,.3,.07,.54,.21,.71,.14,.17,.34,.26,.61,.26,.24,0,.43-.06,.57-.19,.14-.13,.24-.3,.31-.51l1.03,.45c-.16,.45-.4,.78-.72,.99-.33,.21-.72,.31-1.19,.31Z"></path><path class="cls-1" d="M101.17,44.41c-.35,0-.66-.06-.93-.17s-.5-.28-.69-.5c-.19-.22-.33-.48-.44-.78-.1-.31-.15-.65-.15-1.03s.05-.72,.15-1.03,.25-.57,.44-.78,.42-.38,.69-.49c.27-.11,.58-.17,.93-.17s.66,.06,.93,.17c.27,.11,.5,.28,.69,.49s.33,.47,.44,.78,.15,.65,.15,1.03-.05,.72-.15,1.03c-.1,.31-.25,.57-.44,.78-.19,.22-.42,.38-.69,.5-.27,.11-.58,.17-.93,.17Zm0-1.05c.26,0,.47-.08,.61-.24s.22-.39,.22-.69v-.96c0-.3-.07-.53-.22-.69s-.35-.24-.61-.24-.47,.08-.61,.24c-.14,.16-.22,.39-.22,.69v.96c0,.3,.07,.53,.22,.69,.14,.16,.35,.24,.61,.24Z"></path><path class="cls-1" d="M105.65,44.3c-.46,0-.79-.11-1-.33-.21-.22-.32-.54-.32-.96v-5.36h1.33v5.62h.59v1.04h-.6Z"></path><path class="cls-1" d="M108.31,44.3c-.46,0-.79-.11-1-.33-.21-.22-.32-.54-.32-.96v-5.36h1.33v5.62h.59v1.04h-.6Z"></path><path class="cls-1" d="M113.2,44.3c-.24,0-.44-.08-.6-.23-.16-.15-.26-.35-.3-.6h-.05c-.07,.31-.23,.54-.48,.7-.25,.16-.55,.24-.91,.24-.47,0-.84-.13-1.09-.38-.25-.25-.38-.58-.38-1,0-.5,.18-.87,.54-1.11,.36-.24,.86-.36,1.48-.36h.75v-.3c0-.23-.06-.41-.18-.54-.12-.13-.32-.2-.6-.2-.26,0-.47,.06-.63,.17-.16,.11-.29,.24-.39,.39l-.79-.71c.19-.28,.43-.51,.72-.67,.29-.16,.69-.24,1.18-.24,.67,0,1.18,.15,1.51,.44,.34,.29,.5,.72,.5,1.29v2.07h.44v1.04h-.74Zm-1.84-.82c.22,0,.41-.05,.57-.14,.16-.1,.24-.25,.24-.46v-.55h-.65c-.52,0-.78,.18-.78,.53v.13c0,.17,.05,.3,.16,.38s.26,.12,.46,.12Z"></path><path class="cls-1" d="M114.83,37.64h1.33v2.73h.04c.07-.26,.22-.48,.45-.65,.24-.17,.51-.25,.81-.25,.6,0,1.05,.21,1.36,.63,.31,.42,.46,1.03,.46,1.84s-.15,1.42-.46,1.84c-.31,.42-.76,.63-1.36,.63-.16,0-.3-.02-.44-.07-.14-.04-.26-.11-.37-.19-.11-.08-.21-.18-.28-.29-.08-.11-.13-.23-.17-.36h-.04v.79h-1.33v-6.66Zm2.21,5.69c.25,0,.46-.09,.63-.27,.16-.18,.25-.42,.25-.72v-.82c0-.3-.08-.54-.25-.72-.17-.18-.37-.27-.63-.27s-.46,.06-.63,.18c-.17,.12-.25,.29-.25,.51v1.4c0,.22,.08,.39,.25,.51,.16,.12,.37,.18,.63,.18Z"></path><path class="cls-1" d="M122.22,44.41c-.35,0-.66-.06-.93-.17s-.5-.28-.69-.5c-.19-.22-.33-.48-.44-.78-.1-.31-.15-.65-.15-1.03s.05-.72,.15-1.03,.25-.57,.44-.78,.42-.38,.69-.49c.27-.11,.58-.17,.93-.17s.66,.06,.93,.17c.27,.11,.5,.28,.69,.49s.33,.47,.44,.78,.15,.65,.15,1.03-.05,.72-.15,1.03c-.1,.31-.25,.57-.44,.78-.19,.22-.42,.38-.69,.5-.27,.11-.58,.17-.93,.17Zm0-1.05c.26,0,.47-.08,.61-.24s.22-.39,.22-.69v-.96c0-.3-.07-.53-.22-.69s-.35-.24-.61-.24-.47,.08-.61,.24c-.14,.16-.22,.39-.22,.69v.96c0,.3,.07,.53,.22,.69,.14,.16,.35,.24,.61,.24Z"></path><path class="cls-1" d="M125.38,44.3v-4.73h1.33v1.03h.04c.02-.13,.07-.26,.13-.38s.14-.23,.24-.33c.1-.1,.22-.17,.36-.23,.14-.06,.3-.09,.49-.09h.23v1.24h-.33c-.39,0-.68,.05-.87,.15s-.28,.29-.28,.57v2.76h-1.33Z"></path><path class="cls-1" d="M132.38,44.3c-.24,0-.44-.08-.6-.23-.16-.15-.26-.35-.3-.6h-.05c-.07,.31-.23,.54-.48,.7-.25,.16-.55,.24-.91,.24-.47,0-.84-.13-1.09-.38-.25-.25-.38-.58-.38-1,0-.5,.18-.87,.54-1.11,.36-.24,.86-.36,1.48-.36h.75v-.3c0-.23-.06-.41-.18-.54-.12-.13-.32-.2-.6-.2-.26,0-.47,.06-.63,.17-.16,.11-.29,.24-.39,.39l-.79-.71c.19-.28,.43-.51,.72-.67,.29-.16,.69-.24,1.18-.24,.67,0,1.18,.15,1.51,.44,.34,.29,.5,.72,.5,1.29v2.07h.44v1.04h-.74Zm-1.84-.82c.22,0,.41-.05,.57-.14,.16-.1,.24-.25,.24-.46v-.55h-.65c-.52,0-.78,.18-.78,.53v.13c0,.17,.05,.3,.16,.38s.26,.12,.46,.12Z"></path><path class="cls-1" d="M135.61,44.3c-.46,0-.81-.12-1.05-.35-.24-.23-.36-.58-.36-1.03v-2.31h-.67v-1.04h.33c.18,0,.3-.04,.37-.13,.07-.09,.1-.21,.1-.37v-.77h1.2v1.28h.94v1.04h-.94v2.65h.86v1.04h-.79Z"></path><path class="cls-1" d="M139.34,44.41c-.36,0-.68-.06-.96-.18-.28-.12-.52-.28-.72-.5-.2-.21-.34-.47-.44-.78-.1-.31-.15-.65-.15-1.03s.05-.71,.14-1.01c.1-.3,.24-.56,.43-.78,.19-.22,.42-.38,.7-.5,.28-.12,.59-.18,.95-.18,.39,0,.72,.07,1,.2,.28,.13,.51,.31,.68,.53,.18,.22,.31,.48,.39,.77,.08,.29,.12,.6,.12,.91v.4h-3.03v.07c0,.31,.08,.56,.25,.74,.17,.18,.43,.27,.79,.27,.28,0,.5-.06,.67-.17,.17-.11,.34-.24,.49-.4l.67,.83c-.21,.25-.48,.44-.82,.58s-.72,.21-1.16,.21Zm-.03-3.96c-.27,0-.48,.09-.63,.27-.15,.18-.23,.41-.23,.71v.07h1.66v-.08c0-.29-.06-.52-.19-.7-.13-.18-.33-.27-.6-.27Z"></path></g><g><path class="cls-1" d="M164.54,67.98v-6.28h2.97c.29,0,.56,.05,.79,.15,.23,.1,.43,.24,.6,.41,.16,.17,.29,.39,.38,.63s.13,.52,.13,.81-.04,.57-.13,.82-.22,.46-.38,.63c-.17,.17-.36,.31-.6,.41s-.5,.15-.79,.15h-1.6v2.27h-1.37Zm1.37-3.46h1.44c.2,0,.36-.05,.48-.16,.12-.1,.18-.26,.18-.46v-.4c0-.2-.06-.36-.18-.46-.12-.1-.28-.16-.48-.16h-1.44v1.64Z"></path><path class="cls-1" d="M172.16,68.09c-.36,0-.68-.06-.96-.18-.28-.12-.52-.28-.72-.5-.2-.21-.34-.47-.44-.78-.1-.31-.15-.65-.15-1.03s.05-.71,.14-1.01c.1-.3,.24-.56,.43-.78,.19-.22,.42-.38,.7-.5,.28-.12,.59-.18,.95-.18,.39,0,.72,.07,1,.2,.28,.13,.51,.31,.68,.53,.18,.22,.31,.48,.39,.77,.08,.29,.12,.6,.12,.91v.4h-3.03v.07c0,.31,.08,.56,.25,.74,.17,.18,.43,.27,.79,.27,.28,0,.5-.06,.67-.17,.17-.11,.34-.24,.49-.4l.67,.83c-.21,.25-.48,.44-.82,.58s-.72,.21-1.16,.21Zm-.03-3.96c-.27,0-.48,.09-.63,.27-.15,.18-.23,.41-.23,.71v.07h1.66v-.08c0-.29-.06-.52-.19-.7-.13-.18-.33-.27-.6-.27Z"></path><path class="cls-1" d="M175.25,67.98v-4.73h1.33v1.03h.04c.02-.13,.07-.26,.13-.38s.14-.23,.24-.33c.1-.1,.22-.17,.36-.23,.14-.06,.3-.09,.49-.09h.23v1.24h-.33c-.39,0-.68,.05-.87,.15s-.28,.29-.28,.57v2.76h-1.33Z"></path><path class="cls-1" d="M180.49,68.09c-.46,0-.84-.07-1.15-.22s-.59-.36-.84-.63l.78-.79c.17,.19,.35,.33,.56,.44,.2,.11,.43,.16,.69,.16s.45-.04,.55-.12,.15-.19,.15-.33c0-.22-.16-.35-.48-.4l-.51-.06c-1.06-.13-1.59-.62-1.59-1.46,0-.23,.04-.44,.13-.63s.21-.35,.37-.49c.16-.14,.35-.24,.58-.32,.23-.07,.48-.11,.76-.11,.25,0,.46,.02,.65,.05,.19,.03,.36,.08,.5,.14s.28,.14,.41,.23c.12,.09,.24,.2,.36,.31l-.77,.78c-.15-.15-.32-.27-.51-.36s-.38-.13-.58-.13c-.23,0-.39,.04-.49,.11-.1,.07-.14,.17-.14,.29s.03,.22,.1,.29c.07,.07,.2,.12,.39,.15l.53,.07c1.04,.14,1.56,.61,1.56,1.42,0,.23-.05,.44-.14,.63-.1,.19-.23,.36-.41,.5-.18,.14-.39,.25-.64,.33-.25,.08-.53,.12-.83,.12Z"></path><path class="cls-1" d="M185.34,68.09c-.35,0-.66-.06-.93-.17s-.5-.28-.69-.5c-.19-.22-.33-.48-.44-.78-.1-.31-.15-.65-.15-1.03s.05-.72,.15-1.03,.25-.57,.44-.78,.42-.38,.69-.49c.27-.11,.58-.17,.93-.17s.66,.06,.93,.17c.27,.11,.5,.28,.69,.49s.33,.47,.44,.78,.15,.65,.15,1.03-.05,.72-.15,1.03c-.1,.31-.25,.57-.44,.78-.19,.22-.42,.38-.69,.5-.27,.11-.58,.17-.93,.17Zm0-1.05c.26,0,.47-.08,.61-.24s.22-.39,.22-.69v-.96c0-.3-.07-.53-.22-.69s-.35-.24-.61-.24-.47,.08-.61,.24c-.14,.16-.22,.39-.22,.69v.96c0,.3,.07,.53,.22,.69,.14,.16,.35,.24,.61,.24Z"></path><path class="cls-1" d="M188.5,67.98v-4.73h1.33v.8h.05c.08-.25,.23-.46,.44-.64,.21-.18,.5-.27,.87-.27,.49,0,.85,.16,1.1,.49,.25,.32,.37,.79,.37,1.39v2.96h-1.33v-2.85c0-.31-.05-.53-.14-.68-.1-.15-.27-.22-.51-.22-.11,0-.21,.01-.31,.04-.1,.03-.19,.07-.27,.13-.08,.06-.15,.13-.19,.22s-.07,.19-.07,.3v3.06h-1.33Z"></path><path class="cls-1" d="M197.36,67.98c-.24,0-.44-.08-.6-.23-.16-.15-.26-.35-.3-.6h-.05c-.07,.31-.23,.54-.48,.7-.25,.16-.55,.24-.91,.24-.47,0-.84-.13-1.09-.38-.25-.25-.38-.58-.38-1,0-.5,.18-.87,.54-1.11,.36-.24,.86-.36,1.48-.36h.75v-.3c0-.23-.06-.41-.18-.54-.12-.13-.32-.2-.6-.2-.26,0-.47,.06-.63,.17-.16,.11-.29,.24-.39,.39l-.79-.71c.19-.28,.43-.51,.72-.67,.29-.16,.69-.24,1.18-.24,.67,0,1.18,.15,1.51,.44,.34,.29,.5,.72,.5,1.29v2.07h.44v1.04h-.74Zm-1.84-.82c.22,0,.41-.05,.57-.14,.16-.1,.24-.25,.24-.46v-.55h-.65c-.52,0-.78,.18-.78,.53v.13c0,.17,.05,.3,.16,.38s.26,.12,.46,.12Z"></path><path class="cls-1" d="M200.31,67.98c-.46,0-.79-.11-1-.33-.21-.22-.32-.54-.32-.96v-5.36h1.33v5.62h.59v1.04h-.6Z"></path><path class="cls-1" d="M168.51,78.89c-.35,0-.66-.06-.93-.17-.27-.11-.5-.28-.69-.5s-.33-.48-.44-.78-.15-.65-.15-1.03,.05-.72,.15-1.03c.1-.31,.25-.57,.44-.78s.42-.38,.69-.49c.27-.11,.58-.17,.93-.17s.66,.06,.93,.17c.27,.11,.5,.28,.69,.49s.33,.47,.44,.78c.1,.31,.15,.65,.15,1.03s-.05,.72-.15,1.03-.25,.57-.44,.78-.42,.38-.69,.5c-.27,.11-.58,.17-.93,.17Zm0-1.05c.26,0,.47-.08,.61-.24s.22-.39,.22-.69v-.96c0-.3-.07-.53-.22-.69s-.35-.24-.61-.24-.47,.08-.61,.24c-.14,.16-.22,.39-.22,.69v.96c0,.3,.07,.53,.22,.69,.14,.16,.35,.24,.61,.24Z"></path><path class="cls-1" d="M171.13,74.06h1.29l.46,1.91,.32,1.44h.04l.38-1.44,.54-1.91h1.22l.55,1.91,.39,1.44h.04l.32-1.44,.46-1.91h1.23l-1.31,4.72h-1.39l-.58-2-.33-1.22h-.03l-.32,1.22-.58,2h-1.37l-1.32-4.72Z"></path><path class="cls-1" d="M179.15,78.78v-4.72h1.33v.8h.05c.08-.25,.23-.46,.44-.64,.21-.18,.5-.27,.87-.27,.49,0,.85,.16,1.1,.49,.25,.32,.37,.79,.37,1.39v2.96h-1.33v-2.85c0-.31-.05-.53-.14-.68-.1-.15-.27-.22-.51-.22-.11,0-.21,.01-.31,.04-.1,.03-.19,.07-.27,.13-.08,.06-.15,.13-.19,.22s-.07,.19-.07,.3v3.06h-1.33Z"></path><path class="cls-1" d="M186.48,78.89c-.36,0-.68-.06-.96-.18s-.52-.28-.72-.5c-.2-.21-.34-.47-.44-.78-.1-.31-.15-.65-.15-1.03s.05-.71,.14-1.01c.1-.3,.24-.56,.43-.78,.19-.22,.42-.38,.7-.5,.28-.12,.59-.18,.95-.18,.39,0,.72,.07,1,.2,.28,.13,.51,.31,.68,.53,.18,.22,.31,.48,.39,.77,.08,.29,.12,.6,.12,.91v.4h-3.03v.07c0,.31,.08,.55,.25,.74s.43,.27,.79,.27c.28,0,.5-.06,.67-.17,.17-.11,.34-.24,.49-.4l.67,.83c-.21,.25-.48,.44-.82,.58-.34,.14-.72,.21-1.16,.21Zm-.03-3.96c-.27,0-.48,.09-.63,.27-.15,.18-.23,.41-.23,.71v.07h1.66v-.08c0-.29-.06-.52-.19-.7-.13-.18-.33-.27-.6-.27Z"></path><path class="cls-1" d="M189.57,78.78v-4.72h1.33v1.03h.04c.02-.13,.07-.26,.13-.38s.14-.23,.24-.33c.1-.1,.22-.17,.36-.23,.14-.06,.3-.09,.49-.09h.23v1.24h-.33c-.39,0-.68,.05-.87,.15-.19,.1-.28,.29-.28,.57v2.76h-1.33Z"></path><path class="cls-1" d="M194.81,78.89c-.46,0-.84-.07-1.15-.22-.31-.15-.59-.36-.84-.62l.78-.79c.17,.19,.35,.33,.56,.44,.2,.11,.43,.16,.69,.16s.45-.04,.55-.12,.15-.19,.15-.33c0-.22-.16-.35-.48-.4l-.51-.06c-1.06-.13-1.59-.62-1.59-1.46,0-.23,.04-.44,.13-.62,.09-.19,.21-.35,.37-.49,.16-.14,.35-.24,.58-.32,.23-.07,.48-.11,.76-.11,.25,0,.46,.02,.65,.05,.19,.03,.36,.08,.5,.14s.28,.14,.41,.23c.12,.09,.24,.2,.36,.31l-.77,.78c-.15-.15-.32-.27-.51-.36s-.38-.13-.58-.13c-.23,0-.39,.04-.49,.11-.1,.07-.14,.17-.14,.29s.03,.22,.1,.29c.07,.07,.2,.12,.39,.15l.53,.07c1.04,.14,1.56,.61,1.56,1.42,0,.23-.05,.44-.14,.63s-.23,.36-.41,.5c-.18,.14-.39,.25-.64,.33-.25,.08-.53,.12-.83,.12Z"></path><path class="cls-1" d="M197.74,72.12h1.33v2.74h.05c.08-.25,.23-.46,.44-.64,.21-.18,.5-.27,.87-.27,.49,0,.85,.16,1.1,.49,.25,.32,.37,.79,.37,1.39v2.96h-1.33v-2.85c0-.31-.05-.53-.14-.68-.1-.15-.27-.22-.51-.22-.11,0-.21,.01-.31,.04-.1,.03-.19,.07-.27,.13-.08,.06-.15,.13-.19,.22s-.07,.19-.07,.3v3.06h-1.33v-6.66Z"></path><path class="cls-1" d="M203.77,73.55c-.27,0-.47-.06-.59-.18s-.18-.28-.18-.47v-.2c0-.19,.06-.35,.18-.47,.12-.12,.32-.18,.59-.18s.47,.06,.59,.18c.12,.12,.18,.28,.18,.47v.2c0,.19-.06,.35-.18,.47s-.32,.18-.59,.18Zm-.67,.5h1.33v4.72h-1.33v-4.72Z"></path><path class="cls-1" d="M205.68,74.06h1.33v.79h.04c.07-.26,.22-.48,.45-.65,.24-.17,.51-.25,.81-.25,.6,0,1.05,.21,1.36,.63,.31,.42,.46,1.03,.46,1.84s-.15,1.42-.46,1.84-.76,.63-1.36,.63c-.16,0-.3-.02-.44-.07-.14-.04-.26-.11-.37-.19-.11-.08-.21-.18-.28-.29-.08-.11-.13-.23-.17-.36h-.04v2.59h-1.33v-6.52Zm2.21,3.75c.25,0,.46-.09,.63-.27,.16-.18,.25-.42,.25-.72v-.82c0-.3-.08-.54-.25-.72-.17-.18-.37-.27-.63-.27s-.46,.06-.63,.18c-.17,.12-.25,.29-.25,.51v1.39c0,.22,.08,.39,.25,.51,.16,.12,.37,.18,.63,.18Z"></path><path class="cls-1" d="M179.13,89.69c-.35,0-.66-.06-.93-.17-.27-.11-.5-.28-.69-.5-.19-.22-.33-.48-.44-.78-.1-.31-.15-.65-.15-1.03s.05-.72,.15-1.03c.1-.31,.25-.57,.44-.78s.42-.38,.69-.49,.58-.17,.93-.17,.66,.06,.93,.17c.27,.11,.5,.28,.69,.49s.33,.47,.44,.78c.1,.31,.15,.65,.15,1.03s-.05,.72-.15,1.03c-.1,.31-.25,.57-.44,.78-.19,.22-.42,.38-.69,.5-.27,.11-.58,.17-.93,.17Zm0-1.05c.26,0,.47-.08,.61-.24s.22-.39,.22-.69v-.96c0-.3-.07-.53-.22-.69s-.35-.24-.61-.24-.47,.08-.61,.24c-.14,.16-.22,.39-.22,.69v.96c0,.3,.07,.53,.22,.69,.14,.16,.35,.24,.61,.24Z"></path><path class="cls-1" d="M182.47,85.89h-.67v-1.04h.67v-.56c0-.46,.12-.8,.36-1.03,.24-.23,.59-.35,1.05-.35h.86v1.04h-.94v.9h.94v1.04h-.94v3.69h-1.33v-3.69Z"></path><path class="cls-1" d="M189.52,89.69c-.35,0-.67-.06-.94-.17-.28-.12-.51-.28-.69-.5s-.33-.47-.42-.78c-.1-.31-.14-.65-.14-1.03s.05-.72,.14-1.02c.1-.3,.24-.56,.42-.78s.42-.38,.69-.5,.59-.17,.94-.17c.48,0,.88,.11,1.2,.32,.32,.22,.55,.52,.69,.91l-1.08,.47c-.04-.18-.13-.33-.26-.46-.13-.13-.31-.19-.55-.19-.27,0-.47,.09-.61,.27s-.21,.42-.21,.72v.88c0,.3,.07,.54,.21,.71s.34,.26,.61,.26c.24,0,.43-.06,.57-.19,.14-.13,.24-.3,.31-.51l1.03,.45c-.16,.45-.4,.78-.72,.99-.33,.21-.72,.31-1.19,.31Z"></path><path class="cls-1" d="M193.58,89.58c-.46,0-.79-.11-1-.33s-.32-.54-.32-.96v-5.36h1.33v5.62h.59v1.04h-.6Z"></path><path class="cls-1" d="M196.91,89.69c-.35,0-.66-.06-.93-.17-.27-.11-.5-.28-.69-.5-.19-.22-.33-.48-.44-.78-.1-.31-.15-.65-.15-1.03s.05-.72,.15-1.03c.1-.31,.25-.57,.44-.78s.42-.38,.69-.49,.58-.17,.93-.17,.66,.06,.93,.17c.27,.11,.5,.28,.69,.49s.33,.47,.44,.78c.1,.31,.15,.65,.15,1.03s-.05,.72-.15,1.03c-.1,.31-.25,.57-.44,.78-.19,.22-.42,.38-.69,.5-.27,.11-.58,.17-.93,.17Zm0-1.05c.26,0,.47-.08,.61-.24s.22-.39,.22-.69v-.96c0-.3-.07-.53-.22-.69s-.35-.24-.61-.24-.47,.08-.61,.24c-.14,.16-.22,.39-.22,.69v.96c0,.3,.07,.53,.22,.69,.14,.16,.35,.24,.61,.24Z"></path><path class="cls-1" d="M202.85,88.79h-.04c-.04,.12-.1,.23-.17,.34-.07,.11-.16,.2-.27,.29s-.24,.15-.38,.2-.32,.07-.51,.07c-.49,0-.85-.16-1.1-.48-.25-.32-.37-.78-.37-1.38v-2.97h1.33v2.85c0,.29,.05,.51,.15,.67s.28,.23,.52,.23c.1,0,.2-.01,.31-.04,.1-.03,.19-.07,.27-.13,.08-.06,.14-.13,.19-.21s.07-.18,.07-.3v-3.07h1.33v4.73h-1.33v-.79Z"></path><path class="cls-1" d="M208.33,88.79h-.04c-.04,.13-.09,.24-.17,.36-.08,.11-.17,.21-.28,.29-.11,.08-.24,.14-.38,.19-.14,.04-.29,.07-.44,.07-.6,0-1.05-.21-1.36-.63-.31-.42-.46-1.04-.46-1.84s.15-1.42,.46-1.84c.31-.42,.76-.63,1.36-.63,.31,0,.58,.08,.81,.25,.24,.17,.39,.38,.45,.65h.04v-2.73h1.33v6.66h-1.33v-.79Zm-.87-.18c.25,0,.46-.06,.63-.18,.17-.12,.25-.29,.25-.51v-1.4c0-.22-.08-.38-.25-.51s-.37-.18-.63-.18-.46,.09-.63,.27c-.17,.18-.25,.42-.25,.71v.82c0,.3,.08,.54,.25,.72,.17,.18,.37,.26,.63,.26Z"></path><path class="cls-1" d="M180.18,99.59h-.04c-.04,.12-.1,.23-.17,.34-.07,.11-.16,.2-.27,.29s-.24,.15-.38,.2-.32,.07-.51,.07c-.49,0-.85-.16-1.1-.48-.25-.32-.37-.78-.37-1.38v-2.97h1.33v2.85c0,.29,.05,.51,.15,.67s.28,.23,.52,.23c.1,0,.2-.01,.31-.04,.1-.03,.19-.07,.27-.13,.08-.06,.14-.13,.19-.21s.07-.18,.07-.3v-3.07h1.33v4.73h-1.33v-.79Z"></path><path class="cls-1" d="M184.36,100.49c-.46,0-.84-.07-1.15-.22-.31-.15-.59-.36-.84-.63l.78-.79c.17,.19,.35,.33,.56,.44,.2,.11,.43,.16,.69,.16s.45-.04,.55-.12,.15-.19,.15-.33c0-.22-.16-.35-.48-.4l-.51-.06c-1.06-.13-1.59-.62-1.59-1.46,0-.23,.04-.44,.13-.63,.09-.19,.21-.35,.37-.49,.16-.14,.35-.24,.58-.32s.48-.11,.76-.11c.25,0,.46,.02,.65,.05,.19,.03,.36,.08,.5,.14,.15,.06,.28,.14,.41,.23,.12,.09,.24,.2,.36,.31l-.77,.78c-.15-.15-.32-.27-.51-.36s-.38-.13-.58-.13c-.23,0-.39,.04-.49,.11-.1,.07-.14,.17-.14,.29s.03,.22,.1,.29c.07,.07,.2,.12,.39,.15l.53,.07c1.04,.14,1.56,.61,1.56,1.42,0,.23-.05,.44-.14,.63-.1,.19-.23,.36-.41,.5-.18,.14-.39,.25-.64,.33-.25,.08-.53,.12-.83,.12Z"></path><path class="cls-1" d="M190.79,100.38c-.24,0-.44-.08-.6-.23-.16-.15-.26-.35-.3-.6h-.05c-.07,.31-.23,.54-.48,.7-.25,.16-.55,.24-.91,.24-.47,0-.84-.12-1.09-.38-.25-.25-.38-.58-.38-1,0-.5,.18-.87,.54-1.11,.36-.24,.86-.36,1.48-.36h.75v-.3c0-.23-.06-.41-.18-.54-.12-.13-.32-.2-.6-.2-.26,0-.47,.06-.63,.17-.16,.11-.29,.24-.39,.39l-.79-.71c.19-.28,.43-.51,.72-.67,.29-.16,.69-.24,1.18-.24,.67,0,1.18,.15,1.51,.44,.34,.29,.5,.72,.5,1.29v2.07h.44v1.04h-.74Zm-1.84-.82c.22,0,.41-.05,.57-.14,.16-.1,.24-.25,.24-.46v-.55h-.65c-.52,0-.78,.18-.78,.53v.13c0,.17,.05,.3,.16,.38,.11,.08,.26,.12,.46,.12Z"></path><path class="cls-1" d="M196.79,100.73c0,.25-.04,.47-.13,.67s-.23,.36-.43,.49c-.2,.13-.46,.24-.79,.31-.33,.07-.73,.1-1.21,.1-.41,0-.75-.03-1.04-.08s-.52-.12-.69-.22c-.18-.09-.31-.21-.39-.34s-.12-.29-.12-.46c0-.26,.08-.47,.23-.62,.16-.15,.37-.24,.65-.28v-.1c-.23-.04-.4-.14-.51-.29s-.17-.33-.17-.54c0-.13,.03-.24,.08-.33,.05-.09,.12-.17,.2-.24,.08-.07,.18-.12,.28-.17s.22-.08,.32-.1v-.04c-.29-.13-.5-.31-.64-.54-.14-.23-.21-.5-.21-.8,0-.48,.17-.87,.5-1.16,.33-.29,.84-.44,1.53-.44,.31,0,.58,.03,.8,.09v-.18c0-.25,.06-.43,.18-.54s.3-.17,.53-.17h.75v.99h-1.04v.05c.28,.13,.48,.31,.61,.54,.13,.23,.2,.5,.2,.81,0,.47-.17,.85-.5,1.14s-.84,.43-1.53,.43c-.31,0-.58-.03-.84-.1-.14,.09-.21,.22-.21,.38,0,.11,.04,.2,.13,.27,.09,.06,.23,.09,.44,.09h1.37c.58,0,.99,.12,1.26,.36,.26,.24,.39,.58,.39,1.02Zm-1.25,.18c0-.14-.05-.24-.16-.31-.11-.07-.3-.11-.57-.11h-1.62c-.06,.06-.1,.13-.13,.2-.03,.08-.04,.15-.04,.22,0,.17,.07,.3,.23,.38,.15,.08,.4,.12,.76,.12h.54c.36,0,.62-.04,.77-.12s.23-.21,.23-.38Zm-1.29-3.08c.26,0,.46-.05,.59-.17s.19-.27,.19-.48v-.11c0-.21-.06-.37-.19-.48-.13-.11-.33-.17-.59-.17s-.46,.06-.59,.17c-.13,.11-.19,.27-.19,.48v.11c0,.21,.06,.37,.19,.48,.13,.11,.33,.17,.59,.17Z"></path><path class="cls-1" d="M199.3,100.49c-.36,0-.68-.06-.96-.17-.28-.12-.52-.28-.72-.5-.2-.21-.34-.47-.44-.78-.1-.31-.15-.65-.15-1.03s.05-.71,.14-1.01c.1-.3,.24-.56,.43-.78s.42-.38,.7-.5c.28-.12,.59-.17,.95-.17,.39,0,.72,.07,1,.2,.28,.13,.51,.31,.68,.53,.18,.22,.31,.48,.39,.77,.08,.29,.12,.6,.12,.91v.4h-3.03v.07c0,.31,.08,.56,.25,.74,.17,.18,.43,.27,.79,.27,.28,0,.5-.05,.67-.17s.34-.24,.49-.4l.67,.83c-.21,.25-.48,.44-.82,.58-.34,.14-.72,.21-1.16,.21Zm-.03-3.96c-.27,0-.48,.09-.63,.27-.15,.18-.23,.41-.23,.71v.07h1.66v-.08c0-.29-.06-.52-.19-.7-.13-.18-.33-.27-.6-.27Z"></path></g><g><path class="cls-1" d="M177.15,156.39l-.45-1.49h-2.1l-.45,1.49h-1.39l2.07-6.28h1.69l2.04,6.28h-1.42Zm-1.48-5.04h-.04l-.69,2.38h1.44l-.7-2.38Z"></path><path class="cls-1" d="M181.28,156.5c-.35,0-.67-.06-.94-.17-.28-.12-.51-.28-.69-.5s-.33-.47-.42-.78c-.1-.31-.14-.65-.14-1.03s.05-.72,.14-1.02c.1-.3,.24-.56,.42-.78s.42-.38,.69-.5,.59-.17,.94-.17c.48,0,.88,.11,1.2,.32,.32,.22,.55,.52,.69,.91l-1.08,.47c-.04-.18-.13-.33-.26-.46-.13-.13-.31-.19-.55-.19-.27,0-.47,.09-.61,.27s-.21,.42-.21,.72v.88c0,.3,.07,.54,.21,.71s.34,.26,.61,.26c.24,0,.43-.06,.57-.19,.14-.13,.24-.3,.31-.51l1.03,.45c-.16,.45-.4,.78-.72,.99-.33,.21-.72,.31-1.19,.31Z"></path><path class="cls-1" d="M185.89,156.5c-.35,0-.67-.06-.94-.17-.28-.12-.51-.28-.69-.5s-.33-.47-.42-.78c-.1-.31-.14-.65-.14-1.03s.05-.72,.14-1.02c.1-.3,.24-.56,.42-.78s.42-.38,.69-.5,.59-.17,.94-.17c.48,0,.88,.11,1.2,.32,.32,.22,.55,.52,.69,.91l-1.08,.47c-.04-.18-.13-.33-.26-.46-.13-.13-.31-.19-.55-.19-.27,0-.47,.09-.61,.27s-.21,.42-.21,.72v.88c0,.3,.07,.54,.21,.71s.34,.26,.61,.26c.24,0,.43-.06,.57-.19,.14-.13,.24-.3,.31-.51l1.03,.45c-.16,.45-.4,.78-.72,.99-.33,.21-.72,.31-1.19,.31Z"></path><path class="cls-1" d="M190.56,156.5c-.36,0-.68-.06-.96-.17-.28-.12-.52-.28-.72-.5-.2-.21-.34-.47-.44-.78-.1-.31-.15-.65-.15-1.03s.05-.71,.14-1.01c.1-.3,.24-.56,.43-.78s.42-.38,.7-.5c.28-.12,.59-.17,.95-.17,.39,0,.72,.07,1,.2,.28,.13,.51,.31,.68,.53,.18,.22,.31,.48,.39,.77,.08,.29,.12,.6,.12,.91v.4h-3.03v.07c0,.31,.08,.56,.25,.74,.17,.18,.43,.27,.79,.27,.28,0,.5-.05,.67-.17s.34-.24,.49-.4l.67,.83c-.21,.25-.48,.44-.82,.58-.34,.14-.72,.21-1.16,.21Zm-.03-3.96c-.27,0-.48,.09-.63,.27-.15,.18-.23,.41-.23,.71v.07h1.66v-.08c0-.29-.06-.52-.19-.7-.13-.18-.33-.27-.6-.27Z"></path><path class="cls-1" d="M195.25,156.5c-.46,0-.84-.07-1.15-.22-.31-.15-.59-.36-.84-.63l.78-.79c.17,.19,.35,.33,.56,.44,.2,.11,.43,.16,.69,.16s.45-.04,.55-.12,.15-.19,.15-.33c0-.22-.16-.35-.48-.4l-.51-.06c-1.06-.13-1.59-.62-1.59-1.46,0-.23,.04-.44,.13-.63,.09-.19,.21-.35,.37-.49,.16-.14,.35-.24,.58-.32s.48-.11,.76-.11c.25,0,.46,.02,.65,.05,.19,.03,.36,.08,.5,.14,.15,.06,.28,.14,.41,.23,.12,.09,.24,.2,.36,.31l-.77,.78c-.15-.15-.32-.27-.51-.36s-.38-.13-.58-.13c-.23,0-.39,.04-.49,.11-.1,.07-.14,.17-.14,.29s.03,.22,.1,.29c.07,.07,.2,.12,.39,.15l.53,.07c1.04,.14,1.56,.61,1.56,1.42,0,.23-.05,.44-.14,.63-.1,.19-.23,.36-.41,.5-.18,.14-.39,.25-.64,.33-.25,.08-.53,.12-.83,.12Z"></path><path class="cls-1" d="M199.72,156.5c-.46,0-.84-.07-1.15-.22-.31-.15-.59-.36-.84-.63l.78-.79c.17,.19,.35,.33,.56,.44,.2,.11,.43,.16,.69,.16s.45-.04,.55-.12,.15-.19,.15-.33c0-.22-.16-.35-.48-.4l-.51-.06c-1.06-.13-1.59-.62-1.59-1.46,0-.23,.04-.44,.13-.63,.09-.19,.21-.35,.37-.49,.16-.14,.35-.24,.58-.32s.48-.11,.76-.11c.25,0,.46,.02,.65,.05,.19,.03,.36,.08,.5,.14,.15,.06,.28,.14,.41,.23,.12,.09,.24,.2,.36,.31l-.77,.78c-.15-.15-.32-.27-.51-.36s-.38-.13-.58-.13c-.23,0-.39,.04-.49,.11-.1,.07-.14,.17-.14,.29s.03,.22,.1,.29c.07,.07,.2,.12,.39,.15l.53,.07c1.04,.14,1.56,.61,1.56,1.42,0,.23-.05,.44-.14,.63-.1,.19-.23,.36-.41,.5-.18,.14-.39,.25-.64,.33-.25,.08-.53,.12-.83,.12Z"></path><path class="cls-1" d="M203.32,151.16c-.27,0-.47-.06-.59-.18s-.18-.28-.18-.47v-.2c0-.19,.06-.35,.18-.47s.32-.18,.59-.18,.47,.06,.59,.18,.18,.28,.18,.47v.2c0,.19-.06,.35-.18,.47s-.32,.18-.59,.18Zm-.67,.5h1.33v4.73h-1.33v-4.73Z"></path><path class="cls-1" d="M205.23,149.73h1.33v2.73h.04c.07-.26,.22-.48,.45-.65,.24-.17,.51-.25,.81-.25,.6,0,1.05,.21,1.36,.63s.46,1.03,.46,1.84-.15,1.42-.46,1.84c-.31,.42-.76,.63-1.36,.63-.16,0-.3-.02-.44-.07-.14-.04-.26-.11-.37-.19-.11-.08-.21-.18-.28-.29s-.13-.23-.17-.36h-.04v.79h-1.33v-6.66Zm2.21,5.69c.25,0,.46-.09,.63-.26,.16-.18,.25-.42,.25-.72v-.82c0-.3-.08-.54-.25-.71-.17-.18-.37-.27-.63-.27s-.46,.06-.63,.18c-.17,.12-.25,.29-.25,.51v1.4c0,.22,.08,.39,.25,.51,.16,.12,.37,.18,.63,.18Z"></path><path class="cls-1" d="M212.02,156.39c-.46,0-.79-.11-1-.33s-.32-.54-.32-.96v-5.36h1.33v5.62h.59v1.04h-.6Z"></path><path class="cls-1" d="M215.4,156.5c-.36,0-.68-.06-.96-.17-.28-.12-.52-.28-.72-.5-.2-.21-.34-.47-.44-.78-.1-.31-.15-.65-.15-1.03s.05-.71,.14-1.01c.1-.3,.24-.56,.43-.78s.42-.38,.7-.5c.28-.12,.59-.17,.95-.17,.39,0,.72,.07,1,.2,.28,.13,.51,.31,.68,.53,.18,.22,.31,.48,.39,.77,.08,.29,.12,.6,.12,.91v.4h-3.03v.07c0,.31,.08,.56,.25,.74,.17,.18,.43,.27,.79,.27,.28,0,.5-.05,.67-.17s.34-.24,.49-.4l.67,.83c-.21,.25-.48,.44-.82,.58-.34,.14-.72,.21-1.16,.21Zm-.03-3.96c-.27,0-.48,.09-.63,.27-.15,.18-.23,.41-.23,.71v.07h1.66v-.08c0-.29-.06-.52-.19-.7-.13-.18-.33-.27-.6-.27Z"></path><path class="cls-1" d="M172.45,167.19c-.24,0-.44-.08-.6-.23-.16-.15-.26-.35-.3-.6h-.05c-.07,.31-.23,.54-.48,.7-.25,.16-.55,.24-.91,.24-.47,0-.84-.12-1.09-.38-.25-.25-.38-.58-.38-1,0-.5,.18-.87,.54-1.11,.36-.24,.86-.36,1.48-.36h.75v-.3c0-.23-.06-.41-.18-.54-.12-.13-.32-.2-.6-.2-.26,0-.47,.06-.63,.17-.16,.11-.29,.24-.39,.39l-.79-.71c.19-.28,.43-.51,.72-.67,.29-.16,.69-.24,1.18-.24,.67,0,1.18,.15,1.51,.44,.34,.29,.5,.72,.5,1.29v2.07h.44v1.04h-.74Zm-1.84-.82c.22,0,.41-.05,.57-.14,.16-.1,.24-.25,.24-.46v-.55h-.65c-.52,0-.78,.18-.78,.53v.13c0,.17,.05,.3,.16,.38,.11,.08,.26,.12,.46,.12Z"></path><path class="cls-1" d="M174.08,167.19v-4.73h1.33v.8h.05c.08-.25,.23-.46,.44-.64,.21-.18,.5-.27,.87-.27,.49,0,.85,.16,1.1,.49,.25,.32,.37,.79,.37,1.39v2.96h-1.33v-2.85c0-.31-.05-.53-.14-.68-.1-.15-.27-.22-.51-.22-.11,0-.21,.01-.31,.04-.1,.03-.19,.07-.27,.13-.08,.06-.15,.13-.19,.22s-.07,.19-.07,.3v3.06h-1.33Z"></path><path class="cls-1" d="M182.34,166.4h-.04c-.04,.13-.09,.24-.17,.36-.08,.11-.17,.21-.28,.29-.11,.08-.24,.14-.38,.19-.14,.04-.29,.07-.44,.07-.6,0-1.05-.21-1.36-.63-.31-.42-.46-1.04-.46-1.84s.15-1.42,.46-1.84c.31-.42,.76-.63,1.36-.63,.31,0,.58,.08,.81,.25,.24,.17,.39,.38,.45,.65h.04v-2.73h1.33v6.66h-1.33v-.79Zm-.87-.18c.25,0,.46-.06,.63-.18,.17-.12,.25-.29,.25-.51v-1.4c0-.22-.08-.38-.25-.51s-.37-.18-.63-.18-.46,.09-.63,.27c-.17,.18-.25,.42-.25,.71v.82c0,.3,.08,.54,.25,.72,.17,.18,.37,.26,.63,.26Z"></path><path class="cls-1" d="M188.7,167.19c-.46,0-.81-.12-1.05-.35-.24-.23-.36-.58-.36-1.03v-2.31h-.67v-1.04h.33c.18,0,.3-.04,.37-.13,.07-.09,.1-.21,.1-.37v-.77h1.2v1.28h.94v1.04h-.94v2.66h.86v1.04h-.79Z"></path><path class="cls-1" d="M191.15,161.96c-.27,0-.47-.06-.59-.18s-.18-.28-.18-.47v-.2c0-.19,.06-.35,.18-.47s.32-.18,.59-.18,.47,.06,.59,.18,.18,.28,.18,.47v.2c0,.19-.06,.35-.18,.47s-.32,.18-.59,.18Zm-.67,.5h1.33v4.73h-1.33v-4.73Z"></path><path class="cls-1" d="M193.06,167.19v-4.73h1.33v.8h.05c.08-.25,.23-.47,.43-.64,.2-.18,.48-.27,.84-.27,.32,0,.6,.08,.83,.24,.23,.16,.39,.4,.5,.71h.03c.04-.13,.11-.26,.19-.37s.19-.22,.32-.3c.13-.08,.27-.15,.42-.2,.16-.05,.32-.08,.5-.08,.46,0,.81,.16,1.05,.49,.24,.32,.36,.79,.36,1.39v2.96h-1.33v-2.85c0-.6-.22-.9-.65-.9-.2,0-.38,.06-.54,.17s-.24,.29-.24,.52v3.06h-1.33v-2.85c0-.6-.22-.9-.65-.9-.1,0-.19,.01-.28,.04-.09,.03-.18,.07-.25,.13-.08,.06-.14,.13-.18,.22s-.07,.19-.07,.3v3.06h-1.33Z"></path><path class="cls-1" d="M203.08,167.3c-.36,0-.68-.06-.96-.17-.28-.12-.52-.28-.72-.5-.2-.21-.34-.47-.44-.78-.1-.31-.15-.65-.15-1.03s.05-.71,.14-1.01c.1-.3,.24-.56,.43-.78s.42-.38,.7-.5c.28-.12,.59-.17,.95-.17,.39,0,.72,.07,1,.2,.28,.13,.51,.31,.68,.53,.18,.22,.31,.48,.39,.77,.08,.29,.12,.6,.12,.91v.4h-3.03v.07c0,.31,.08,.56,.25,.74,.17,.18,.43,.27,.79,.27,.28,0,.5-.05,.67-.17s.34-.24,.49-.4l.67,.83c-.21,.25-.48,.44-.82,.58-.34,.14-.72,.21-1.16,.21Zm-.03-3.96c-.27,0-.48,.09-.63,.27-.15,.18-.23,.41-.23,.71v.07h1.66v-.08c0-.29-.06-.52-.19-.7-.13-.18-.33-.27-.6-.27Z"></path><path class="cls-1" d="M207.49,167.19c-.46,0-.79-.11-1-.33s-.32-.54-.32-.96v-5.36h1.33v5.62h.59v1.04h-.6Z"></path><path class="cls-1" d="M211.73,162.47h1.24l-1.82,5.45c-.12,.37-.29,.64-.51,.81-.22,.17-.53,.26-.94,.26h-.83v-1.04h.89l.16-.52-1.66-4.97h1.32l.69,2.21,.34,1.37h.05l.35-1.37,.69-2.21Z"></path><path class="cls-1" d="M166.84,177.99v-4.72h1.33v1.03h.04c.02-.13,.07-.26,.13-.38s.14-.23,.24-.33c.1-.1,.22-.17,.36-.23,.14-.06,.3-.08,.49-.08h.23v1.24h-.33c-.39,0-.68,.05-.87,.15-.19,.1-.28,.29-.28,.57v2.76h-1.33Z"></path><path class="cls-1" d="M172.4,178.1c-.36,0-.68-.06-.96-.18s-.52-.28-.72-.5c-.2-.21-.34-.47-.44-.78-.1-.31-.15-.65-.15-1.03s.05-.71,.14-1.01c.1-.3,.24-.56,.43-.78,.19-.22,.42-.38,.7-.5,.28-.12,.59-.18,.95-.18,.39,0,.72,.07,1,.2s.51,.31,.68,.53c.18,.22,.31,.48,.39,.77,.08,.29,.12,.6,.12,.91v.4h-3.03v.07c0,.31,.08,.55,.25,.74s.43,.27,.79,.27c.28,0,.5-.06,.67-.17,.17-.11,.34-.24,.49-.4l.67,.83c-.21,.25-.48,.44-.82,.58-.34,.14-.72,.21-1.16,.21Zm-.03-3.96c-.27,0-.48,.09-.63,.27-.15,.18-.23,.41-.23,.71v.07h1.66v-.08c0-.29-.06-.52-.19-.7-.13-.18-.33-.27-.6-.27Z"></path><path class="cls-1" d="M175.49,173.27h1.33v.79h.04c.07-.26,.22-.48,.45-.65,.24-.17,.51-.25,.81-.25,.6,0,1.05,.21,1.36,.63,.31,.42,.46,1.03,.46,1.84s-.15,1.42-.46,1.84-.76,.63-1.36,.63c-.16,0-.3-.02-.44-.07-.14-.04-.26-.11-.37-.19-.11-.08-.21-.18-.28-.29-.08-.11-.13-.23-.17-.36h-.04v2.59h-1.33v-6.52Zm2.21,3.75c.25,0,.46-.09,.63-.27,.16-.18,.25-.42,.25-.72v-.82c0-.3-.08-.54-.25-.72-.17-.18-.37-.27-.63-.27s-.46,.06-.63,.18c-.17,.12-.25,.29-.25,.51v1.39c0,.22,.08,.39,.25,.51,.16,.12,.37,.18,.63,.18Z"></path><path class="cls-1" d="M182.87,178.1c-.35,0-.66-.06-.93-.17-.27-.11-.5-.28-.69-.5s-.33-.48-.44-.78-.15-.65-.15-1.03,.05-.72,.15-1.03c.1-.31,.25-.57,.44-.78s.42-.38,.69-.49c.27-.11,.58-.17,.93-.17s.66,.06,.93,.17c.27,.11,.5,.28,.69,.49s.33,.47,.44,.78c.1,.31,.15,.65,.15,1.03s-.05,.72-.15,1.03-.25,.57-.44,.78-.42,.38-.69,.5c-.27,.11-.58,.17-.93,.17Zm0-1.05c.26,0,.47-.08,.61-.24s.22-.39,.22-.69v-.96c0-.3-.07-.53-.22-.69s-.35-.24-.61-.24-.47,.08-.61,.24c-.14,.16-.22,.39-.22,.69v.96c0,.3,.07,.53,.22,.69,.14,.16,.35,.24,.61,.24Z"></path><path class="cls-1" d="M186.03,177.99v-4.72h1.33v1.03h.04c.02-.13,.07-.26,.13-.38s.14-.23,.24-.33c.1-.1,.22-.17,.36-.23,.14-.06,.3-.08,.49-.08h.23v1.24h-.33c-.39,0-.68,.05-.87,.15-.19,.1-.28,.29-.28,.57v2.76h-1.33Z"></path><path class="cls-1" d="M191.36,177.99c-.46,0-.81-.12-1.05-.35-.24-.23-.36-.58-.36-1.03v-2.31h-.67v-1.04h.33c.18,0,.3-.04,.37-.13,.07-.09,.1-.21,.1-.37v-.77h1.2v1.28h.94v1.04h-.94v2.65h.86v1.04h-.79Z"></path><path class="cls-1" d="M194.75,178.1c-.46,0-.84-.07-1.15-.22-.31-.15-.59-.36-.84-.62l.78-.79c.17,.19,.35,.33,.56,.44,.2,.11,.43,.16,.69,.16s.45-.04,.55-.12,.15-.19,.15-.33c0-.22-.16-.35-.48-.4l-.51-.06c-1.06-.13-1.59-.62-1.59-1.46,0-.23,.04-.44,.13-.62,.09-.19,.21-.35,.37-.49,.16-.13,.35-.24,.58-.32,.23-.07,.48-.11,.76-.11,.25,0,.46,.02,.65,.05s.36,.08,.5,.14c.15,.06,.28,.14,.41,.23,.12,.09,.24,.2,.36,.31l-.77,.78c-.15-.15-.32-.27-.51-.36s-.38-.13-.58-.13c-.23,0-.39,.04-.49,.11-.1,.07-.14,.17-.14,.29s.03,.22,.1,.29c.07,.07,.2,.12,.39,.15l.53,.07c1.04,.14,1.56,.61,1.56,1.42,0,.23-.05,.44-.14,.63s-.23,.36-.41,.5c-.18,.14-.39,.25-.64,.33-.25,.08-.53,.12-.83,.12Z"></path></g><g><path class="cls-1" d="M89.44,208.44l-.45-1.49h-2.1l-.45,1.49h-1.39l2.07-6.28h1.69l2.04,6.28h-1.42Zm-1.48-5.04h-.04l-.69,2.38h1.44l-.7-2.38Z"></path><path class="cls-1" d="M95.7,208.55c-.35,0-.67-.06-.94-.17-.28-.12-.51-.28-.69-.5s-.33-.47-.42-.78c-.1-.31-.14-.65-.14-1.03s.05-.72,.14-1.02c.1-.3,.24-.56,.42-.78s.42-.38,.69-.5,.59-.17,.94-.17c.48,0,.88,.11,1.2,.32,.32,.22,.55,.52,.69,.91l-1.08,.47c-.04-.18-.13-.33-.26-.46-.13-.13-.31-.19-.55-.19-.27,0-.47,.09-.61,.27s-.21,.42-.21,.72v.88c0,.3,.07,.54,.21,.71s.34,.26,.61,.26c.24,0,.43-.06,.57-.19,.14-.13,.24-.3,.31-.51l1.03,.45c-.16,.45-.4,.78-.72,.99-.33,.21-.72,.31-1.19,.31Z"></path><path class="cls-1" d="M100.37,208.55c-.36,0-.68-.06-.96-.17-.28-.12-.52-.28-.72-.5-.2-.21-.34-.47-.44-.78-.1-.31-.15-.65-.15-1.03s.05-.71,.14-1.01c.1-.3,.24-.56,.43-.78s.42-.38,.7-.5c.28-.12,.59-.17,.95-.17,.39,0,.72,.07,1,.2,.28,.13,.51,.31,.68,.53,.18,.22,.31,.48,.39,.77,.08,.29,.12,.6,.12,.91v.4h-3.03v.07c0,.31,.08,.56,.25,.74,.17,.18,.43,.27,.79,.27,.28,0,.5-.05,.67-.17s.34-.24,.49-.4l.67,.83c-.21,.25-.48,.44-.82,.58-.34,.14-.72,.21-1.16,.21Zm-.03-3.96c-.27,0-.48,.09-.63,.27-.15,.18-.23,.41-.23,.71v.07h1.66v-.08c0-.29-.06-.52-.19-.7-.13-.18-.33-.27-.6-.27Z"></path><path class="cls-1" d="M103.46,208.44v-4.73h1.33v.8h.05c.08-.25,.23-.46,.44-.64,.21-.18,.5-.27,.87-.27,.49,0,.85,.16,1.1,.49,.25,.32,.37,.79,.37,1.39v2.96h-1.33v-2.85c0-.31-.05-.53-.14-.68-.1-.15-.27-.22-.51-.22-.11,0-.21,.01-.31,.04-.1,.03-.19,.07-.27,.13-.08,.06-.15,.13-.19,.22s-.07,.19-.07,.3v3.06h-1.33Z"></path><path class="cls-1" d="M110.47,208.44c-.46,0-.81-.12-1.05-.35-.24-.23-.36-.58-.36-1.03v-2.31h-.67v-1.04h.33c.18,0,.3-.04,.37-.13,.07-.09,.1-.21,.1-.37v-.77h1.2v1.28h.94v1.04h-.94v2.66h.86v1.04h-.79Z"></path><path class="cls-1" d="M112.27,208.44v-4.73h1.33v1.03h.04c.02-.13,.07-.26,.13-.38s.14-.23,.24-.33c.1-.1,.22-.17,.36-.23,.14-.06,.3-.09,.49-.09h.23v1.24h-.33c-.39,0-.68,.05-.87,.15-.19,.1-.28,.29-.28,.57v2.76h-1.33Z"></path><path class="cls-1" d="M119.27,208.44c-.24,0-.44-.08-.6-.23-.16-.15-.26-.35-.3-.6h-.05c-.07,.31-.23,.54-.48,.7-.25,.16-.55,.24-.91,.24-.47,0-.84-.12-1.09-.38-.25-.25-.38-.58-.38-1,0-.5,.18-.87,.54-1.11,.36-.24,.86-.36,1.48-.36h.75v-.3c0-.23-.06-.41-.18-.54-.12-.13-.32-.2-.6-.2-.26,0-.47,.06-.63,.17-.16,.11-.29,.24-.39,.39l-.79-.71c.19-.28,.43-.51,.72-.67,.29-.16,.69-.24,1.18-.24,.67,0,1.18,.15,1.51,.44,.34,.29,.5,.72,.5,1.29v2.07h.44v1.04h-.74Zm-1.84-.82c.22,0,.41-.05,.57-.14,.16-.1,.24-.25,.24-.46v-.55h-.65c-.52,0-.78,.18-.78,.53v.13c0,.17,.05,.3,.16,.38,.11,.08,.26,.12,.46,.12Z"></path><path class="cls-1" d="M122.22,208.44c-.46,0-.79-.11-1-.33s-.32-.54-.32-.96v-5.36h1.33v5.62h.59v1.04h-.6Z"></path><path class="cls-1" d="M124.29,203.21c-.27,0-.47-.06-.59-.18s-.18-.28-.18-.47v-.2c0-.19,.06-.35,.18-.47s.32-.18,.59-.18,.47,.06,.59,.18,.18,.28,.18,.47v.2c0,.19-.06,.35-.18,.47s-.32,.18-.59,.18Zm-.67,.5h1.33v4.73h-1.33v-4.73Z"></path><path class="cls-1" d="M125.93,208.44v-1.05l2.35-2.64h-2.27v-1.04h3.82v1.04l-2.36,2.65h2.42v1.04h-3.96Z"></path><path class="cls-1" d="M132.72,208.55c-.36,0-.68-.06-.96-.17-.28-.12-.52-.28-.72-.5-.2-.21-.34-.47-.44-.78-.1-.31-.15-.65-.15-1.03s.05-.71,.14-1.01c.1-.3,.24-.56,.43-.78s.42-.38,.7-.5c.28-.12,.59-.17,.95-.17,.39,0,.72,.07,1,.2,.28,.13,.51,.31,.68,.53,.18,.22,.31,.48,.39,.77,.08,.29,.12,.6,.12,.91v.4h-3.03v.07c0,.31,.08,.56,.25,.74,.17,.18,.43,.27,.79,.27,.28,0,.5-.05,.67-.17s.34-.24,.49-.4l.67,.83c-.21,.25-.48,.44-.82,.58-.34,.14-.72,.21-1.16,.21Zm-.03-3.96c-.27,0-.48,.09-.63,.27-.15,.18-.23,.41-.23,.71v.07h1.66v-.08c0-.29-.06-.52-.19-.7-.13-.18-.33-.27-.6-.27Z"></path><path class="cls-1" d="M138.71,207.65h-.04c-.04,.13-.09,.24-.17,.36-.08,.11-.17,.21-.28,.29-.11,.08-.24,.14-.38,.19-.14,.04-.29,.07-.44,.07-.6,0-1.05-.21-1.36-.63-.31-.42-.46-1.04-.46-1.84s.15-1.42,.46-1.84c.31-.42,.76-.63,1.36-.63,.31,0,.58,.08,.81,.25,.24,.17,.39,.38,.45,.65h.04v-2.73h1.33v6.66h-1.33v-.79Zm-.87-.18c.25,0,.46-.06,.63-.18,.17-.12,.25-.29,.25-.51v-1.4c0-.22-.08-.38-.25-.51s-.37-.18-.63-.18-.46,.09-.63,.27c-.17,.18-.25,.42-.25,.71v.82c0,.3,.08,.54,.25,.72,.17,.18,.37,.26,.63,.26Z"></path><path class="cls-1" d="M86.76,219.24v-6.28h4.17v1.21h-2.8v1.28h2.38v1.21h-2.38v2.57h-1.37Z"></path><path class="cls-1" d="M92.62,214.01c-.27,0-.47-.06-.59-.18s-.18-.28-.18-.47v-.2c0-.19,.06-.35,.18-.47s.32-.18,.59-.18,.47,.06,.59,.18,.18,.28,.18,.47v.2c0,.19-.06,.35-.18,.47s-.32,.18-.59,.18Zm-.67,.5h1.33v4.73h-1.33v-4.73Z"></path><path class="cls-1" d="M94.53,219.24v-4.73h1.33v.8h.05c.08-.25,.23-.46,.44-.64,.21-.18,.5-.27,.87-.27,.49,0,.85,.16,1.1,.49,.25,.32,.37,.79,.37,1.39v2.96h-1.33v-2.85c0-.31-.05-.53-.14-.68-.1-.15-.27-.22-.51-.22-.11,0-.21,.01-.31,.04-.1,.03-.19,.07-.27,.13-.08,.06-.15,.13-.19,.22s-.07,.19-.07,.3v3.06h-1.33Z"></path><path class="cls-1" d="M102.49,219.35c-.41,0-.79-.07-1.13-.21-.34-.14-.63-.34-.87-.62-.24-.27-.43-.61-.56-1.02-.13-.41-.2-.88-.2-1.41s.07-1,.2-1.41,.32-.74,.56-1.02c.24-.27,.53-.48,.87-.62,.34-.14,.72-.21,1.13-.21s.79,.07,1.13,.21c.34,.14,.63,.34,.87,.62,.24,.27,.43,.61,.56,1.02s.2,.88,.2,1.41-.07,1-.2,1.41c-.13,.4-.32,.74-.56,1.02-.24,.27-.53,.48-.87,.62-.34,.14-.72,.21-1.13,.21Zm0-1.21c.41,0,.74-.13,.97-.41,.23-.27,.35-.66,.35-1.16v-.94c0-.5-.12-.89-.35-1.16-.23-.27-.55-.4-.97-.4s-.74,.13-.97,.4c-.23,.27-.35,.66-.35,1.16v.94c0,.5,.12,.89,.35,1.16,.23,.27,.55,.41,.97,.41Z"></path><path class="cls-1" d="M106.32,214.52h1.33v.79h.04c.07-.26,.22-.48,.45-.65,.24-.17,.51-.25,.81-.25,.6,0,1.05,.21,1.36,.63s.46,1.03,.46,1.84-.15,1.42-.46,1.84c-.31,.42-.76,.63-1.36,.63-.16,0-.3-.02-.44-.07-.14-.04-.26-.11-.37-.19-.11-.08-.21-.18-.28-.29s-.13-.23-.17-.36h-.04v2.59h-1.33v-6.53Zm2.21,3.75c.25,0,.46-.09,.63-.26,.16-.18,.25-.42,.25-.72v-.82c0-.3-.08-.54-.25-.71-.17-.18-.37-.27-.63-.27s-.46,.06-.63,.18c-.17,.12-.25,.29-.25,.51v1.4c0,.22,.08,.39,.25,.51,.16,.12,.37,.18,.63,.18Z"></path><path class="cls-1" d="M113.4,219.35c-.46,0-.84-.07-1.15-.22-.31-.15-.59-.36-.84-.63l.78-.79c.17,.19,.35,.33,.56,.44,.2,.11,.43,.16,.69,.16s.45-.04,.55-.12,.15-.19,.15-.33c0-.22-.16-.35-.48-.4l-.51-.06c-1.06-.13-1.59-.62-1.59-1.46,0-.23,.04-.44,.13-.63,.09-.19,.21-.35,.37-.49,.16-.14,.35-.24,.58-.32s.48-.11,.76-.11c.25,0,.46,.02,.65,.05,.19,.03,.36,.08,.5,.14,.15,.06,.28,.14,.41,.23,.12,.09,.24,.2,.36,.31l-.77,.78c-.15-.15-.32-.27-.51-.36s-.38-.13-.58-.13c-.23,0-.39,.04-.49,.11-.1,.07-.14,.17-.14,.29s.03,.22,.1,.29c.07,.07,.2,.12,.39,.15l.53,.07c1.04,.14,1.56,.61,1.56,1.42,0,.23-.05,.44-.14,.63-.1,.19-.23,.36-.41,.5-.18,.14-.39,.25-.64,.33-.25,.08-.53,.12-.83,.12Z"></path><path class="cls-1" d="M120.11,219.24c-.46,0-.81-.12-1.05-.35-.24-.23-.36-.58-.36-1.03v-2.31h-.67v-1.04h.33c.18,0,.3-.04,.37-.13,.07-.09,.1-.21,.1-.37v-.77h1.2v1.28h.94v1.04h-.94v2.66h.86v1.04h-.79Z"></path><path class="cls-1" d="M123.83,219.35c-.36,0-.68-.06-.96-.17-.28-.12-.52-.28-.72-.5-.2-.21-.34-.47-.44-.78-.1-.31-.15-.65-.15-1.03s.05-.71,.14-1.01c.1-.3,.24-.56,.43-.78s.42-.38,.7-.5c.28-.12,.59-.17,.95-.17,.39,0,.72,.07,1,.2,.28,.13,.51,.31,.68,.53,.18,.22,.31,.48,.39,.77,.08,.29,.12,.6,.12,.91v.4h-3.03v.07c0,.31,.08,.56,.25,.74,.17,.18,.43,.27,.79,.27,.28,0,.5-.05,.67-.17s.34-.24,.49-.4l.67,.83c-.21,.25-.48,.44-.82,.58-.34,.14-.72,.21-1.16,.21Zm-.03-3.96c-.27,0-.48,.09-.63,.27-.15,.18-.23,.41-.23,.71v.07h1.66v-.08c0-.29-.06-.52-.19-.7-.13-.18-.33-.27-.6-.27Z"></path><path class="cls-1" d="M130.41,219.24c-.24,0-.44-.08-.6-.23-.16-.15-.26-.35-.3-.6h-.05c-.07,.31-.23,.54-.48,.7-.25,.16-.55,.24-.91,.24-.47,0-.84-.12-1.09-.38-.25-.25-.38-.58-.38-1,0-.5,.18-.87,.54-1.11,.36-.24,.86-.36,1.48-.36h.75v-.3c0-.23-.06-.41-.18-.54-.12-.13-.32-.2-.6-.2-.26,0-.47,.06-.63,.17-.16,.11-.29,.24-.39,.39l-.79-.71c.19-.28,.43-.51,.72-.67,.29-.16,.69-.24,1.18-.24,.67,0,1.18,.15,1.51,.44,.34,.29,.5,.72,.5,1.29v2.07h.44v1.04h-.74Zm-1.84-.82c.22,0,.41-.05,.57-.14,.16-.1,.24-.25,.24-.46v-.55h-.65c-.52,0-.78,.18-.78,.53v.13c0,.17,.05,.3,.16,.38,.11,.08,.26,.12,.46,.12Z"></path><path class="cls-1" d="M132.04,219.24v-4.73h1.33v.8h.05c.08-.25,.23-.47,.43-.64,.2-.18,.48-.27,.84-.27,.32,0,.6,.08,.83,.24,.23,.16,.39,.4,.5,.71h.03c.04-.13,.11-.26,.19-.37s.19-.22,.32-.3c.13-.08,.27-.15,.42-.2,.16-.05,.32-.08,.5-.08,.46,0,.81,.16,1.05,.49,.24,.32,.36,.79,.36,1.39v2.96h-1.33v-2.85c0-.6-.22-.9-.65-.9-.2,0-.38,.06-.54,.17s-.24,.29-.24,.52v3.06h-1.33v-2.85c0-.6-.22-.9-.65-.9-.1,0-.19,.01-.28,.04-.09,.03-.18,.07-.25,.13-.08,.06-.14,.13-.18,.22s-.07,.19-.07,.3v3.06h-1.33Z"></path></g><g><path class="cls-1" d="M9.67,150.96h2.37c.41,0,.79,.07,1.13,.2,.34,.13,.63,.33,.87,.59,.24,.26,.43,.59,.56,.98,.13,.39,.2,.85,.2,1.37s-.07,.98-.2,1.37c-.13,.39-.32,.72-.56,.98-.24,.26-.53,.46-.87,.59-.34,.13-.72,.2-1.13,.2h-2.37v-6.28Zm2.37,5.07c.41,0,.73-.11,.96-.34,.23-.23,.35-.59,.35-1.1v-.97c0-.5-.12-.87-.35-1.1-.23-.23-.56-.34-.96-.34h-1v3.85h1Z"></path><path class="cls-1" d="M17.84,157.35c-.36,0-.68-.06-.96-.18s-.52-.28-.72-.5c-.2-.21-.34-.47-.44-.78-.1-.31-.15-.65-.15-1.03s.05-.71,.14-1.01c.1-.3,.24-.56,.43-.78,.19-.22,.42-.38,.7-.5,.28-.12,.59-.18,.95-.18,.39,0,.72,.07,1,.2s.51,.31,.68,.53c.18,.22,.31,.48,.39,.77,.08,.29,.12,.6,.12,.91v.4h-3.03v.07c0,.31,.08,.55,.25,.74s.43,.27,.79,.27c.28,0,.5-.06,.67-.17,.17-.11,.34-.24,.49-.4l.67,.83c-.21,.25-.48,.44-.82,.58-.34,.14-.72,.21-1.16,.21Zm-.03-3.96c-.27,0-.48,.09-.63,.27-.15,.18-.23,.41-.23,.71v.07h1.66v-.08c0-.29-.06-.52-.19-.7-.13-.18-.33-.27-.6-.27Z"></path><path class="cls-1" d="M22.84,157.35c-.35,0-.67-.06-.94-.18s-.51-.28-.69-.5-.33-.47-.42-.78c-.1-.31-.14-.65-.14-1.03s.05-.72,.14-1.02c.1-.3,.24-.56,.42-.78s.42-.38,.69-.5c.28-.11,.59-.17,.94-.17,.48,0,.88,.11,1.2,.32s.55,.52,.69,.91l-1.08,.47c-.04-.18-.13-.33-.26-.46-.13-.13-.31-.19-.55-.19-.27,0-.47,.09-.61,.26-.14,.18-.21,.42-.21,.72v.88c0,.3,.07,.54,.21,.71,.14,.17,.34,.26,.61,.26,.24,0,.43-.06,.57-.19,.14-.13,.24-.3,.31-.51l1.03,.45c-.16,.45-.4,.78-.72,.99-.33,.21-.72,.32-1.19,.32Z"></path><path class="cls-1" d="M26.25,152.01c-.27,0-.47-.06-.59-.18s-.18-.28-.18-.47v-.2c0-.19,.06-.35,.18-.47,.12-.12,.32-.18,.59-.18s.47,.06,.59,.18c.12,.12,.18,.28,.18,.47v.2c0,.19-.06,.35-.18,.47s-.32,.18-.59,.18Zm-.67,.5h1.33v4.72h-1.33v-4.72Z"></path><path class="cls-1" d="M29.76,157.35c-.46,0-.84-.07-1.15-.22-.31-.15-.59-.36-.84-.62l.78-.79c.17,.19,.35,.33,.56,.44,.2,.11,.43,.16,.69,.16s.45-.04,.55-.12,.15-.19,.15-.33c0-.22-.16-.35-.48-.4l-.51-.06c-1.06-.13-1.59-.62-1.59-1.46,0-.23,.04-.44,.13-.62,.09-.19,.21-.35,.37-.49,.16-.13,.35-.24,.58-.32,.23-.07,.48-.11,.76-.11,.25,0,.46,.02,.65,.05s.36,.08,.5,.14c.15,.06,.28,.14,.41,.23,.12,.09,.24,.2,.36,.31l-.77,.78c-.15-.15-.32-.27-.51-.36s-.38-.13-.58-.13c-.23,0-.39,.04-.49,.11-.1,.07-.14,.17-.14,.29s.03,.22,.1,.29c.07,.07,.2,.12,.39,.15l.53,.07c1.04,.14,1.56,.61,1.56,1.42,0,.23-.05,.44-.14,.63s-.23,.36-.41,.5c-.18,.14-.39,.25-.64,.33-.25,.08-.53,.12-.83,.12Z"></path><path class="cls-1" d="M33.36,152.01c-.27,0-.47-.06-.59-.18s-.18-.28-.18-.47v-.2c0-.19,.06-.35,.18-.47,.12-.12,.32-.18,.59-.18s.47,.06,.59,.18c.12,.12,.18,.28,.18,.47v.2c0,.19-.06,.35-.18,.47s-.32,.18-.59,.18Zm-.67,.5h1.33v4.72h-1.33v-4.72Z"></path><path class="cls-1" d="M37.18,157.35c-.35,0-.66-.06-.93-.17-.27-.11-.5-.28-.69-.5s-.33-.48-.44-.78-.15-.65-.15-1.03,.05-.72,.15-1.03c.1-.31,.25-.57,.44-.78s.42-.38,.69-.49c.27-.11,.58-.17,.93-.17s.66,.06,.93,.17c.27,.11,.5,.28,.69,.49s.33,.47,.44,.78c.1,.31,.15,.65,.15,1.03s-.05,.72-.15,1.03-.25,.57-.44,.78-.42,.38-.69,.5c-.27,.11-.58,.17-.93,.17Zm0-1.05c.26,0,.47-.08,.61-.24s.22-.39,.22-.69v-.96c0-.3-.07-.53-.22-.69s-.35-.24-.61-.24-.47,.08-.61,.24c-.14,.16-.22,.39-.22,.69v.96c0,.3,.07,.53,.22,.69,.14,.16,.35,.24,.61,.24Z"></path><path class="cls-1" d="M40.34,157.24v-4.72h1.33v.8h.05c.08-.25,.23-.46,.44-.64,.21-.18,.5-.27,.87-.27,.49,0,.85,.16,1.1,.49s.37,.79,.37,1.39v2.96h-1.33v-2.85c0-.31-.05-.53-.14-.68-.1-.15-.27-.22-.51-.22-.11,0-.21,.01-.31,.04-.1,.03-.19,.07-.27,.13-.08,.06-.15,.13-.19,.22s-.07,.19-.07,.3v3.06h-1.33Z"></path><path class="cls-1" d="M47.31,157.35c-.46,0-.84-.07-1.15-.22-.31-.15-.59-.36-.84-.62l.78-.79c.17,.19,.35,.33,.56,.44,.2,.11,.43,.16,.69,.16s.45-.04,.55-.12,.15-.19,.15-.33c0-.22-.16-.35-.48-.4l-.51-.06c-1.06-.13-1.59-.62-1.59-1.46,0-.23,.04-.44,.13-.62,.09-.19,.21-.35,.37-.49,.16-.13,.35-.24,.58-.32,.23-.07,.48-.11,.76-.11,.25,0,.46,.02,.65,.05s.36,.08,.5,.14c.15,.06,.28,.14,.41,.23,.12,.09,.24,.2,.36,.31l-.77,.78c-.15-.15-.32-.27-.51-.36s-.38-.13-.58-.13c-.23,0-.39,.04-.49,.11-.1,.07-.14,.17-.14,.29s.03,.22,.1,.29c.07,.07,.2,.12,.39,.15l.53,.07c1.04,.14,1.56,.61,1.56,1.42,0,.23-.05,.44-.14,.63s-.23,.36-.41,.5c-.18,.14-.39,.25-.64,.33-.25,.08-.53,.12-.83,.12Z"></path><path class="cls-1" d="M11.72,161.38h1.33v2.73h.04c.07-.26,.22-.48,.45-.65,.24-.17,.51-.25,.81-.25,.6,0,1.05,.21,1.36,.63,.31,.42,.46,1.03,.46,1.84s-.15,1.42-.46,1.84-.76,.63-1.36,.63c-.16,0-.3-.02-.44-.07-.14-.04-.26-.11-.37-.19-.11-.08-.21-.18-.28-.29-.08-.11-.13-.23-.17-.36h-.04v.79h-1.33v-6.66Zm2.21,5.69c.25,0,.46-.09,.63-.27,.16-.18,.25-.42,.25-.72v-.82c0-.3-.08-.54-.25-.72-.17-.18-.37-.27-.63-.27s-.46,.06-.63,.18c-.17,.12-.25,.29-.25,.51v1.39c0,.22,.08,.39,.25,.51,.16,.12,.37,.18,.63,.18Z"></path><path class="cls-1" d="M19.99,167.25h-.04c-.04,.12-.1,.23-.17,.34-.07,.11-.16,.2-.27,.29s-.24,.15-.38,.2-.32,.07-.51,.07c-.49,0-.85-.16-1.1-.48s-.37-.78-.37-1.38v-2.97h1.33v2.85c0,.29,.05,.51,.15,.67,.1,.16,.28,.23,.52,.23,.1,0,.2-.01,.31-.04s.19-.07,.27-.13c.08-.06,.14-.13,.19-.21s.07-.18,.07-.3v-3.07h1.33v4.72h-1.33v-.79Z"></path><path class="cls-1" d="M24.16,168.15c-.46,0-.84-.07-1.15-.22-.31-.15-.59-.36-.84-.62l.78-.79c.17,.19,.35,.33,.56,.44,.2,.11,.43,.16,.69,.16s.45-.04,.55-.12,.15-.19,.15-.33c0-.22-.16-.35-.48-.4l-.51-.06c-1.06-.13-1.59-.62-1.59-1.46,0-.23,.04-.44,.13-.62,.09-.19,.21-.35,.37-.49,.16-.13,.35-.24,.58-.32,.23-.07,.48-.11,.76-.11,.25,0,.46,.02,.65,.05s.36,.08,.5,.14c.15,.06,.28,.14,.41,.23,.12,.09,.24,.2,.36,.31l-.77,.78c-.15-.15-.32-.27-.51-.36s-.38-.13-.58-.13c-.23,0-.39,.04-.49,.11-.1,.07-.14,.17-.14,.29s.03,.22,.1,.29c.07,.07,.2,.12,.39,.15l.53,.07c1.04,.14,1.56,.61,1.56,1.42,0,.23-.05,.44-.14,.63s-.23,.36-.41,.5c-.18,.14-.39,.25-.64,.33-.25,.08-.53,.12-.83,.12Z"></path><path class="cls-1" d="M27.76,162.81c-.27,0-.47-.06-.59-.18s-.18-.28-.18-.47v-.2c0-.19,.06-.35,.18-.47,.12-.12,.32-.18,.59-.18s.47,.06,.59,.18c.12,.12,.18,.28,.18,.47v.2c0,.19-.06,.35-.18,.47s-.32,.18-.59,.18Zm-.67,.5h1.33v4.72h-1.33v-4.72Z"></path><path class="cls-1" d="M29.67,168.04v-4.72h1.33v.8h.05c.08-.25,.23-.46,.44-.64,.21-.18,.5-.27,.87-.27,.49,0,.85,.16,1.1,.49s.37,.79,.37,1.39v2.96h-1.33v-2.85c0-.31-.05-.53-.14-.68-.1-.15-.27-.22-.51-.22-.11,0-.21,.01-.31,.04-.1,.03-.19,.07-.27,.13-.08,.06-.15,.13-.19,.22s-.07,.19-.07,.3v3.06h-1.33Z"></path><path class="cls-1" d="M37,168.15c-.36,0-.68-.06-.96-.18s-.52-.28-.72-.5c-.2-.21-.34-.47-.44-.78-.1-.31-.15-.65-.15-1.03s.05-.71,.14-1.01c.1-.3,.24-.56,.43-.78,.19-.22,.42-.38,.7-.5,.28-.12,.59-.18,.95-.18,.39,0,.72,.07,1,.2s.51,.31,.68,.53c.18,.22,.31,.48,.39,.77,.08,.29,.12,.6,.12,.91v.4h-3.03v.07c0,.31,.08,.55,.25,.74s.43,.27,.79,.27c.28,0,.5-.06,.67-.17,.17-.11,.34-.24,.49-.4l.67,.83c-.21,.25-.48,.44-.82,.58-.34,.14-.72,.21-1.16,.21Zm-.03-3.96c-.27,0-.48,.09-.63,.27-.15,.18-.23,.41-.23,.71v.07h1.66v-.08c0-.29-.06-.52-.19-.7-.13-.18-.33-.27-.6-.27Z"></path><path class="cls-1" d="M41.69,168.15c-.46,0-.84-.07-1.15-.22-.31-.15-.59-.36-.84-.62l.78-.79c.17,.19,.35,.33,.56,.44,.2,.11,.43,.16,.69,.16s.45-.04,.55-.12,.15-.19,.15-.33c0-.22-.16-.35-.48-.4l-.51-.06c-1.06-.13-1.59-.62-1.59-1.46,0-.23,.04-.44,.13-.62,.09-.19,.21-.35,.37-.49,.16-.13,.35-.24,.58-.32,.23-.07,.48-.11,.76-.11,.25,0,.46,.02,.65,.05s.36,.08,.5,.14c.15,.06,.28,.14,.41,.23,.12,.09,.24,.2,.36,.31l-.77,.78c-.15-.15-.32-.27-.51-.36s-.38-.13-.58-.13c-.23,0-.39,.04-.49,.11-.1,.07-.14,.17-.14,.29s.03,.22,.1,.29c.07,.07,.2,.12,.39,.15l.53,.07c1.04,.14,1.56,.61,1.56,1.42,0,.23-.05,.44-.14,.63s-.23,.36-.41,.5c-.18,.14-.39,.25-.64,.33-.25,.08-.53,.12-.83,.12Z"></path><path class="cls-1" d="M46.17,168.15c-.46,0-.84-.07-1.15-.22-.31-.15-.59-.36-.84-.62l.78-.79c.17,.19,.35,.33,.56,.44,.2,.11,.43,.16,.69,.16s.45-.04,.55-.12,.15-.19,.15-.33c0-.22-.16-.35-.48-.4l-.51-.06c-1.06-.13-1.59-.62-1.59-1.46,0-.23,.04-.44,.13-.62,.09-.19,.21-.35,.37-.49,.16-.13,.35-.24,.58-.32,.23-.07,.48-.11,.76-.11,.25,0,.46,.02,.65,.05s.36,.08,.5,.14c.15,.06,.28,.14,.41,.23,.12,.09,.24,.2,.36,.31l-.77,.78c-.15-.15-.32-.27-.51-.36s-.38-.13-.58-.13c-.23,0-.39,.04-.49,.11-.1,.07-.14,.17-.14,.29s.03,.22,.1,.29c.07,.07,.2,.12,.39,.15l.53,.07c1.04,.14,1.56,.61,1.56,1.42,0,.23-.05,.44-.14,.63s-.23,.36-.41,.5c-.18,.14-.39,.25-.64,.33-.25,.08-.53,.12-.83,.12Z"></path><path class="cls-1" d="M14.86,178.84l-1.55-4.73h1.31l.58,1.91,.44,1.71h.07l.44-1.71,.57-1.91h1.26l-1.55,4.73h-1.58Z"></path><path class="cls-1" d="M22.1,178.84c-.24,0-.44-.08-.6-.23-.16-.15-.26-.35-.3-.6h-.05c-.07,.31-.23,.54-.48,.7-.25,.16-.55,.24-.91,.24-.47,0-.84-.12-1.09-.38-.25-.25-.38-.58-.38-1,0-.5,.18-.87,.54-1.11,.36-.24,.86-.36,1.48-.36h.75v-.3c0-.23-.06-.41-.18-.54-.12-.13-.32-.2-.6-.2-.26,0-.47,.06-.63,.17-.16,.11-.29,.24-.39,.39l-.79-.71c.19-.28,.43-.51,.72-.67,.29-.16,.69-.24,1.18-.24,.67,0,1.18,.15,1.51,.44,.34,.29,.5,.72,.5,1.29v2.07h.44v1.04h-.74Zm-1.84-.82c.22,0,.41-.05,.57-.14,.16-.1,.24-.25,.24-.46v-.55h-.65c-.52,0-.78,.18-.78,.53v.13c0,.17,.05,.3,.16,.38,.11,.08,.26,.12,.46,.12Z"></path><path class="cls-1" d="M25.05,178.84c-.46,0-.79-.11-1-.33s-.32-.54-.32-.96v-5.36h1.33v5.62h.59v1.04h-.6Z"></path><path class="cls-1" d="M29.25,178.05h-.04c-.04,.12-.1,.23-.17,.34-.07,.11-.16,.2-.27,.29s-.24,.15-.38,.2-.32,.07-.51,.07c-.49,0-.85-.16-1.1-.48-.25-.32-.37-.78-.37-1.38v-2.97h1.33v2.85c0,.29,.05,.51,.15,.67s.28,.23,.52,.23c.1,0,.2-.01,.31-.04,.1-.03,.19-.07,.27-.13,.08-.06,.14-.13,.19-.21s.07-.18,.07-.3v-3.07h1.33v4.73h-1.33v-.79Z"></path><path class="cls-1" d="M33.79,178.95c-.36,0-.68-.06-.96-.17-.28-.12-.52-.28-.72-.5-.2-.21-.34-.47-.44-.78-.1-.31-.15-.65-.15-1.03s.05-.71,.14-1.01c.1-.3,.24-.56,.43-.78s.42-.38,.7-.5c.28-.12,.59-.17,.95-.17,.39,0,.72,.07,1,.2,.28,.13,.51,.31,.68,.53,.18,.22,.31,.48,.39,.77,.08,.29,.12,.6,.12,.91v.4h-3.03v.07c0,.31,.08,.56,.25,.74,.17,.18,.43,.27,.79,.27,.28,0,.5-.05,.67-.17s.34-.24,.49-.4l.67,.83c-.21,.25-.48,.44-.82,.58-.34,.14-.72,.21-1.16,.21Zm-.03-3.96c-.27,0-.48,.09-.63,.27-.15,.18-.23,.41-.23,.71v.07h1.66v-.08c0-.29-.06-.52-.19-.7-.13-.18-.33-.27-.6-.27Z"></path><path class="cls-1" d="M41.9,178.05h-.04c-.04,.13-.09,.24-.17,.36-.08,.11-.17,.21-.28,.29-.11,.08-.24,.14-.38,.19-.14,.04-.29,.07-.44,.07-.6,0-1.05-.21-1.36-.63-.31-.42-.46-1.04-.46-1.84s.15-1.42,.46-1.84c.31-.42,.76-.63,1.36-.63,.31,0,.58,.08,.81,.25,.24,.17,.39,.38,.45,.65h.04v-2.73h1.33v6.66h-1.33v-.79Zm-.87-.18c.25,0,.46-.06,.63-.18,.17-.12,.25-.29,.25-.51v-1.4c0-.22-.08-.38-.25-.51s-.37-.18-.63-.18-.46,.09-.63,.27c-.17,.18-.25,.42-.25,.71v.82c0,.3,.08,.54,.25,.72,.17,.18,.37,.26,.63,.26Z"></path><path class="cls-1" d="M44.47,178.84v-4.73h1.33v1.03h.04c.02-.13,.07-.26,.13-.38s.14-.23,.24-.33c.1-.1,.22-.17,.36-.23,.14-.06,.3-.09,.49-.09h.23v1.24h-.33c-.39,0-.68,.05-.87,.15-.19,.1-.28,.29-.28,.57v2.76h-1.33Z"></path><path class="cls-1" d="M48.78,173.61c-.27,0-.47-.06-.59-.18s-.18-.28-.18-.47v-.2c0-.19,.06-.35,.18-.47s.32-.18,.59-.18,.47,.06,.59,.18,.18,.28,.18,.47v.2c0,.19-.06,.35-.18,.47s-.32,.18-.59,.18Zm-.67,.5h1.33v4.73h-1.33v-4.73Z"></path><path class="cls-1" d="M51.69,178.84l-1.55-4.73h1.31l.58,1.91,.44,1.71h.07l.44-1.71,.57-1.91h1.26l-1.55,4.73h-1.58Z"></path><path class="cls-1" d="M57.42,178.95c-.36,0-.68-.06-.96-.17-.28-.12-.52-.28-.72-.5-.2-.21-.34-.47-.44-.78-.1-.31-.15-.65-.15-1.03s.05-.71,.14-1.01c.1-.3,.24-.56,.43-.78s.42-.38,.7-.5c.28-.12,.59-.17,.95-.17,.39,0,.72,.07,1,.2,.28,.13,.51,.31,.68,.53,.18,.22,.31,.48,.39,.77,.08,.29,.12,.6,.12,.91v.4h-3.03v.07c0,.31,.08,.56,.25,.74,.17,.18,.43,.27,.79,.27,.28,0,.5-.05,.67-.17s.34-.24,.49-.4l.67,.83c-.21,.25-.48,.44-.82,.58-.34,.14-.72,.21-1.16,.21Zm-.03-3.96c-.27,0-.48,.09-.63,.27-.15,.18-.23,.41-.23,.71v.07h1.66v-.08c0-.29-.06-.52-.19-.7-.13-.18-.33-.27-.6-.27Z"></path><path class="cls-1" d="M60.51,178.84v-4.73h1.33v.8h.05c.08-.25,.23-.46,.44-.64,.21-.18,.5-.27,.87-.27,.49,0,.85,.16,1.1,.49,.25,.32,.37,.79,.37,1.39v2.96h-1.33v-2.85c0-.31-.05-.53-.14-.68-.1-.15-.27-.22-.51-.22-.11,0-.21,.01-.31,.04-.1,.03-.19,.07-.27,.13-.08,.06-.15,.13-.19,.22s-.07,.19-.07,.3v3.06h-1.33Z"></path></g><g><path class="cls-1" d="M25.47,57.62v5.07h-1.37v-5.07h-1.7v-1.22h4.77v1.22h-1.7Z"></path><path class="cls-1" d="M30.9,62.69c-.24,0-.44-.08-.6-.23-.16-.15-.26-.35-.3-.6h-.05c-.07,.31-.23,.54-.48,.7-.25,.16-.55,.24-.91,.24-.47,0-.84-.13-1.09-.38-.25-.25-.38-.58-.38-1,0-.5,.18-.87,.54-1.11,.36-.24,.86-.36,1.48-.36h.75v-.3c0-.23-.06-.41-.18-.54-.12-.13-.32-.2-.6-.2-.26,0-.47,.06-.63,.17-.16,.11-.29,.24-.39,.39l-.79-.71c.19-.28,.43-.51,.72-.67,.29-.16,.69-.24,1.18-.24,.67,0,1.18,.15,1.51,.44,.34,.29,.5,.72,.5,1.29v2.07h.44v1.04h-.74Zm-1.84-.82c.22,0,.41-.05,.57-.14,.16-.1,.24-.25,.24-.46v-.55h-.65c-.52,0-.78,.18-.78,.53v.13c0,.17,.05,.3,.16,.38s.26,.12,.46,.12Z"></path><path class="cls-1" d="M32.53,56.03h1.33v3.93h.05l.58-.87,.95-1.12h1.48l-1.58,1.81,1.75,2.92h-1.58l-1.06-2-.59,.67v1.33h-1.33v-6.66Z"></path><path class="cls-1" d="M39.45,62.79c-.36,0-.68-.06-.96-.18-.28-.12-.52-.28-.72-.5-.2-.21-.34-.47-.44-.78-.1-.31-.15-.65-.15-1.03s.05-.71,.14-1.01c.1-.3,.24-.56,.43-.78,.19-.22,.42-.38,.7-.5,.28-.12,.59-.18,.95-.18,.39,0,.72,.07,1,.2,.28,.13,.51,.31,.68,.53,.18,.22,.31,.48,.39,.77,.08,.29,.12,.6,.12,.91v.4h-3.03v.07c0,.31,.08,.56,.25,.74,.17,.18,.43,.27,.79,.27,.28,0,.5-.06,.67-.17,.17-.11,.34-.24,.49-.4l.67,.83c-.21,.25-.48,.44-.82,.58s-.72,.21-1.16,.21Zm-.03-3.96c-.27,0-.48,.09-.63,.27-.15,.18-.23,.41-.23,.71v.07h1.66v-.08c0-.29-.06-.52-.19-.7-.13-.18-.33-.27-.6-.27Z"></path><path class="cls-1" d="M19.9,73.48c-.24,0-.44-.08-.6-.23-.16-.15-.26-.35-.3-.6h-.05c-.07,.31-.23,.54-.48,.7-.25,.16-.55,.24-.91,.24-.47,0-.84-.13-1.09-.38-.25-.25-.38-.58-.38-1,0-.5,.18-.87,.54-1.11,.36-.24,.86-.36,1.48-.36h.75v-.3c0-.23-.06-.41-.18-.54-.12-.13-.32-.2-.6-.2-.26,0-.47,.06-.63,.17-.16,.11-.29,.24-.39,.39l-.79-.71c.19-.28,.43-.51,.72-.67,.29-.16,.69-.24,1.18-.24,.67,0,1.18,.15,1.51,.44,.34,.29,.5,.72,.5,1.29v2.07h.44v1.04h-.74Zm-1.84-.82c.22,0,.41-.05,.57-.14,.16-.1,.24-.25,.24-.46v-.55h-.65c-.52,0-.78,.18-.78,.53v.13c0,.17,.05,.3,.16,.38s.26,.12,.46,.12Z"></path><path class="cls-1" d="M24.43,72.69h-.04c-.04,.13-.09,.24-.17,.36-.08,.11-.17,.21-.28,.29-.11,.08-.24,.14-.38,.19-.14,.04-.29,.07-.44,.07-.6,0-1.05-.21-1.36-.63-.31-.42-.46-1.04-.46-1.84s.15-1.42,.46-1.84c.31-.42,.76-.63,1.36-.63,.31,0,.58,.08,.81,.25,.24,.17,.39,.38,.45,.65h.04v-2.73h1.33v6.66h-1.33v-.79Zm-.87-.18c.25,0,.46-.06,.63-.18,.17-.12,.25-.29,.25-.51v-1.4c0-.22-.08-.39-.25-.51s-.37-.18-.63-.18-.46,.09-.63,.27c-.17,.18-.25,.42-.25,.72v.82c0,.3,.08,.54,.25,.72,.17,.18,.37,.27,.63,.27Z"></path><path class="cls-1" d="M28.01,73.48l-1.55-4.73h1.31l.58,1.91,.44,1.71h.07l.44-1.71,.57-1.91h1.26l-1.55,4.73h-1.58Z"></path><path class="cls-1" d="M35.26,73.48c-.24,0-.44-.08-.6-.23-.16-.15-.26-.35-.3-.6h-.05c-.07,.31-.23,.54-.48,.7-.25,.16-.55,.24-.91,.24-.47,0-.84-.13-1.09-.38-.25-.25-.38-.58-.38-1,0-.5,.18-.87,.54-1.11,.36-.24,.86-.36,1.48-.36h.75v-.3c0-.23-.06-.41-.18-.54-.12-.13-.32-.2-.6-.2-.26,0-.47,.06-.63,.17-.16,.11-.29,.24-.39,.39l-.79-.71c.19-.28,.43-.51,.72-.67,.29-.16,.69-.24,1.18-.24,.67,0,1.18,.15,1.51,.44,.34,.29,.5,.72,.5,1.29v2.07h.44v1.04h-.74Zm-1.84-.82c.22,0,.41-.05,.57-.14,.16-.1,.24-.25,.24-.46v-.55h-.65c-.52,0-.78,.18-.78,.53v.13c0,.17,.05,.3,.16,.38s.26,.12,.46,.12Z"></path><path class="cls-1" d="M36.88,73.48v-4.73h1.33v.8h.05c.08-.25,.23-.46,.44-.64,.21-.18,.5-.27,.87-.27,.49,0,.85,.16,1.1,.49,.25,.32,.37,.79,.37,1.39v2.96h-1.33v-2.85c0-.31-.05-.53-.14-.68-.1-.15-.27-.22-.51-.22-.11,0-.21,.01-.31,.04-.1,.03-.19,.07-.27,.13-.08,.06-.15,.13-.19,.22s-.07,.19-.07,.3v3.06h-1.33Z"></path><path class="cls-1" d="M43.9,73.48c-.46,0-.81-.12-1.05-.35-.24-.23-.36-.58-.36-1.03v-2.31h-.67v-1.04h.33c.18,0,.3-.04,.37-.13,.07-.09,.1-.21,.1-.37v-.77h1.2v1.28h.94v1.04h-.94v2.65h.86v1.04h-.79Z"></path><path class="cls-1" d="M49.19,73.48c-.24,0-.44-.08-.6-.23-.16-.15-.26-.35-.3-.6h-.05c-.07,.31-.23,.54-.48,.7-.25,.16-.55,.24-.91,.24-.47,0-.84-.13-1.09-.38-.25-.25-.38-.58-.38-1,0-.5,.18-.87,.54-1.11,.36-.24,.86-.36,1.48-.36h.75v-.3c0-.23-.06-.41-.18-.54-.12-.13-.32-.2-.6-.2-.26,0-.47,.06-.63,.17-.16,.11-.29,.24-.39,.39l-.79-.71c.19-.28,.43-.51,.72-.67,.29-.16,.69-.24,1.18-.24,.67,0,1.18,.15,1.51,.44,.34,.29,.5,.72,.5,1.29v2.07h.44v1.04h-.74Zm-1.84-.82c.22,0,.41-.05,.57-.14,.16-.1,.24-.25,.24-.46v-.55h-.65c-.52,0-.78,.18-.78,.53v.13c0,.17,.05,.3,.16,.38s.26,.12,.46,.12Z"></path><path class="cls-1" d="M55.19,73.83c0,.25-.04,.47-.13,.67-.09,.19-.23,.36-.43,.49-.2,.13-.46,.24-.79,.31-.33,.07-.73,.1-1.21,.1-.41,0-.75-.03-1.04-.08s-.52-.12-.69-.22c-.18-.09-.31-.21-.39-.34-.08-.14-.12-.29-.12-.46,0-.26,.08-.47,.23-.62,.16-.15,.37-.24,.65-.28v-.1c-.23-.04-.4-.14-.51-.29s-.17-.33-.17-.54c0-.13,.03-.24,.08-.33,.05-.09,.12-.17,.2-.24,.08-.07,.18-.12,.28-.17s.22-.08,.32-.1v-.04c-.29-.13-.5-.31-.64-.54-.14-.23-.21-.5-.21-.8,0-.48,.17-.86,.5-1.16,.33-.29,.84-.44,1.53-.44,.31,0,.58,.03,.8,.09v-.18c0-.25,.06-.43,.18-.54,.12-.11,.3-.17,.53-.17h.75v.99h-1.04v.05c.28,.13,.48,.31,.61,.54,.13,.23,.2,.5,.2,.81,0,.47-.17,.85-.5,1.14-.33,.29-.84,.43-1.53,.43-.31,0-.58-.03-.84-.1-.14,.09-.21,.22-.21,.38,0,.11,.04,.2,.13,.27s.23,.09,.44,.09h1.37c.58,0,.99,.12,1.26,.36,.26,.24,.39,.58,.39,1.02Zm-1.25,.18c0-.14-.05-.24-.16-.31-.11-.07-.3-.11-.57-.11h-1.62c-.06,.06-.1,.13-.13,.2-.03,.08-.04,.15-.04,.22,0,.17,.07,.3,.23,.38,.15,.08,.4,.12,.76,.12h.54c.36,0,.62-.04,.77-.12,.15-.08,.23-.21,.23-.38Zm-1.29-3.08c.26,0,.46-.06,.59-.17,.13-.11,.19-.27,.19-.48v-.11c0-.21-.06-.37-.19-.48-.13-.11-.33-.17-.59-.17s-.46,.06-.59,.17c-.13,.11-.19,.27-.19,.48v.11c0,.21,.06,.37,.19,.48,.13,.11,.33,.17,.59,.17Z"></path><path class="cls-1" d="M57.7,73.59c-.36,0-.68-.06-.96-.18-.28-.12-.52-.28-.72-.5-.2-.21-.34-.47-.44-.78-.1-.31-.15-.65-.15-1.03s.05-.71,.14-1.01c.1-.3,.24-.56,.43-.78,.19-.22,.42-.38,.7-.5,.28-.12,.59-.18,.95-.18,.39,0,.72,.07,1,.2,.28,.13,.51,.31,.68,.53,.18,.22,.31,.48,.39,.77,.08,.29,.12,.6,.12,.91v.4h-3.03v.07c0,.31,.08,.56,.25,.74,.17,.18,.43,.27,.79,.27,.28,0,.5-.06,.67-.17,.17-.11,.34-.24,.49-.4l.67,.83c-.21,.25-.48,.44-.82,.58s-.72,.21-1.16,.21Zm-.03-3.96c-.27,0-.48,.09-.63,.27-.15,.18-.23,.41-.23,.71v.07h1.66v-.08c0-.29-.06-.52-.19-.7-.13-.18-.33-.27-.6-.27Z"></path><path class="cls-1" d="M16.2,84.39c-.35,0-.66-.06-.93-.17-.27-.11-.5-.28-.69-.5s-.33-.48-.44-.78-.15-.65-.15-1.03,.05-.72,.15-1.03c.1-.31,.25-.57,.44-.78s.42-.38,.69-.49c.27-.11,.58-.17,.93-.17s.66,.06,.93,.17c.27,.11,.5,.28,.69,.49s.33,.47,.44,.78c.1,.31,.15,.65,.15,1.03s-.05,.72-.15,1.03-.25,.57-.44,.78-.42,.38-.69,.5c-.27,.11-.58,.17-.93,.17Zm0-1.05c.26,0,.47-.08,.61-.24s.22-.39,.22-.69v-.96c0-.3-.07-.53-.22-.69s-.35-.24-.61-.24-.47,.08-.61,.24c-.14,.16-.22,.39-.22,.69v.96c0,.3,.07,.53,.22,.69,.14,.16,.35,.24,.61,.24Z"></path><path class="cls-1" d="M19.54,80.6h-.67v-1.04h.67v-.56c0-.46,.12-.8,.36-1.03,.24-.23,.59-.35,1.05-.35h.86v1.04h-.94v.9h.94v1.04h-.94v3.69h-1.33v-3.69Z"></path><path class="cls-1" d="M25.69,84.29l-1.55-4.72h1.31l.58,1.91,.44,1.71h.07l.44-1.71,.57-1.91h1.26l-1.55,4.72h-1.58Z"></path><path class="cls-1" d="M32.93,84.29c-.24,0-.44-.08-.6-.22-.16-.15-.26-.35-.3-.6h-.05c-.07,.31-.23,.54-.48,.7-.25,.16-.55,.24-.91,.24-.47,0-.84-.13-1.09-.38s-.38-.58-.38-1c0-.5,.18-.87,.54-1.11,.36-.24,.86-.36,1.48-.36h.75v-.3c0-.23-.06-.41-.18-.54s-.32-.2-.6-.2c-.26,0-.47,.06-.63,.17-.16,.11-.29,.24-.39,.39l-.79-.71c.19-.28,.43-.5,.72-.67s.69-.24,1.18-.24c.67,0,1.18,.15,1.51,.44,.34,.29,.5,.72,.5,1.29v2.07h.44v1.04h-.74Zm-1.84-.82c.22,0,.41-.05,.57-.14,.16-.09,.24-.25,.24-.46v-.55h-.65c-.52,0-.78,.18-.78,.53v.13c0,.17,.05,.3,.16,.38,.11,.08,.26,.12,.46,.12Z"></path><path class="cls-1" d="M34.56,84.29v-4.72h1.33v1.03h.04c.02-.13,.07-.26,.13-.38s.14-.23,.24-.33c.1-.1,.22-.17,.36-.23,.14-.06,.3-.08,.49-.08h.23v1.24h-.33c-.39,0-.68,.05-.87,.15-.19,.1-.28,.29-.28,.57v2.76h-1.33Z"></path><path class="cls-1" d="M38.86,79.06c-.27,0-.47-.06-.59-.18s-.18-.28-.18-.47v-.2c0-.19,.06-.35,.18-.47,.12-.12,.32-.18,.59-.18s.47,.06,.59,.18c.12,.12,.18,.28,.18,.47v.2c0,.19-.06,.35-.18,.47s-.32,.18-.59,.18Zm-.67,.5h1.33v4.72h-1.33v-4.72Z"></path><path class="cls-1" d="M44.26,84.29c-.24,0-.44-.08-.6-.22-.16-.15-.26-.35-.3-.6h-.05c-.07,.31-.23,.54-.48,.7-.25,.16-.55,.24-.91,.24-.47,0-.84-.13-1.09-.38s-.38-.58-.38-1c0-.5,.18-.87,.54-1.11,.36-.24,.86-.36,1.48-.36h.75v-.3c0-.23-.06-.41-.18-.54s-.32-.2-.6-.2c-.26,0-.47,.06-.63,.17-.16,.11-.29,.24-.39,.39l-.79-.71c.19-.28,.43-.5,.72-.67s.69-.24,1.18-.24c.67,0,1.18,.15,1.51,.44,.34,.29,.5,.72,.5,1.29v2.07h.44v1.04h-.74Zm-1.84-.82c.22,0,.41-.05,.57-.14,.16-.09,.24-.25,.24-.46v-.55h-.65c-.52,0-.78,.18-.78,.53v.13c0,.17,.05,.3,.16,.38,.11,.08,.26,.12,.46,.12Z"></path><path class="cls-1" d="M45.89,77.63h1.33v2.73h.04c.07-.26,.22-.48,.45-.65,.24-.17,.51-.25,.81-.25,.6,0,1.05,.21,1.36,.63,.31,.42,.46,1.03,.46,1.84s-.15,1.42-.46,1.84-.76,.63-1.36,.63c-.16,0-.3-.02-.44-.07-.14-.04-.26-.11-.37-.19-.11-.08-.21-.18-.28-.29-.08-.11-.13-.23-.17-.36h-.04v.79h-1.33v-6.66Zm2.21,5.69c.25,0,.46-.09,.63-.27,.16-.18,.25-.42,.25-.72v-.82c0-.3-.08-.54-.25-.72-.17-.18-.37-.27-.63-.27s-.46,.06-.63,.18c-.17,.12-.25,.29-.25,.51v1.39c0,.22,.08,.39,.25,.51,.16,.12,.37,.18,.63,.18Z"></path><path class="cls-1" d="M52.69,84.29c-.46,0-.79-.11-1-.33-.21-.22-.32-.54-.32-.96v-5.36h1.33v5.62h.59v1.04h-.6Z"></path><path class="cls-1" d="M56.06,84.39c-.36,0-.68-.06-.96-.18s-.52-.28-.72-.5c-.2-.21-.34-.47-.44-.78-.1-.31-.15-.65-.15-1.03s.05-.71,.14-1.01c.1-.3,.24-.56,.43-.78,.19-.22,.42-.38,.7-.5,.28-.12,.59-.18,.95-.18,.39,0,.72,.07,1,.2s.51,.31,.68,.53c.18,.22,.31,.48,.39,.77,.08,.29,.12,.6,.12,.91v.4h-3.03v.07c0,.31,.08,.55,.25,.74s.43,.27,.79,.27c.28,0,.5-.06,.67-.17,.17-.11,.34-.24,.49-.4l.67,.83c-.21,.25-.48,.44-.82,.58-.34,.14-.72,.21-1.16,.21Zm-.03-3.96c-.27,0-.48,.09-.63,.27-.15,.18-.23,.41-.23,.71v.07h1.66v-.08c0-.29-.06-.52-.19-.7-.13-.18-.33-.27-.6-.27Z"></path><path class="cls-1" d="M16.19,95.19c-.35,0-.67-.06-.94-.18s-.51-.28-.69-.5-.33-.47-.42-.78c-.1-.31-.14-.65-.14-1.03s.05-.72,.14-1.02c.1-.3,.24-.56,.42-.78s.42-.38,.69-.5c.28-.11,.59-.17,.94-.17,.48,0,.88,.11,1.2,.32s.55,.52,.69,.91l-1.08,.47c-.04-.18-.13-.33-.26-.46-.13-.13-.31-.19-.55-.19-.27,0-.47,.09-.61,.26-.14,.18-.21,.42-.21,.72v.88c0,.3,.07,.54,.21,.71,.14,.17,.34,.26,.61,.26,.24,0,.43-.06,.57-.19,.14-.13,.24-.3,.31-.51l1.03,.45c-.16,.45-.4,.78-.72,.99-.33,.21-.72,.32-1.19,.32Z"></path><path class="cls-1" d="M20.26,95.09c-.46,0-.79-.11-1-.33-.21-.22-.32-.54-.32-.96v-5.36h1.33v5.62h.59v1.04h-.6Z"></path><path class="cls-1" d="M23.58,95.19c-.35,0-.66-.06-.93-.17-.27-.11-.5-.28-.69-.5s-.33-.48-.44-.78-.15-.65-.15-1.03,.05-.72,.15-1.03c.1-.31,.25-.57,.44-.78s.42-.38,.69-.49c.27-.11,.58-.17,.93-.17s.66,.06,.93,.17c.27,.11,.5,.28,.69,.49s.33,.47,.44,.78c.1,.31,.15,.65,.15,1.03s-.05,.72-.15,1.03-.25,.57-.44,.78-.42,.38-.69,.5c-.27,.11-.58,.17-.93,.17Zm0-1.05c.26,0,.47-.08,.61-.24s.22-.39,.22-.69v-.96c0-.3-.07-.53-.22-.69s-.35-.24-.61-.24-.47,.08-.61,.24c-.14,.16-.22,.39-.22,.69v.96c0,.3,.07,.53,.22,.69,.14,.16,.35,.24,.61,.24Z"></path><path class="cls-1" d="M29.53,94.29h-.04c-.04,.12-.1,.23-.17,.34-.07,.11-.16,.2-.27,.29s-.24,.15-.38,.2-.32,.07-.51,.07c-.49,0-.85-.16-1.1-.48s-.37-.78-.37-1.38v-2.97h1.33v2.85c0,.29,.05,.51,.15,.67,.1,.16,.28,.23,.52,.23,.1,0,.2-.01,.31-.04s.19-.07,.27-.13c.08-.06,.14-.13,.19-.21s.07-.18,.07-.3v-3.07h1.33v4.72h-1.33v-.79Z"></path><path class="cls-1" d="M35,94.29h-.04c-.04,.13-.09,.25-.17,.36-.08,.11-.17,.21-.28,.29-.11,.08-.24,.14-.38,.19-.14,.04-.29,.07-.44,.07-.6,0-1.05-.21-1.36-.63-.31-.42-.46-1.04-.46-1.84s.15-1.42,.46-1.84c.31-.42,.76-.63,1.36-.63,.31,0,.58,.08,.81,.25,.24,.17,.39,.38,.45,.65h.04v-2.73h1.33v6.66h-1.33v-.79Zm-.87-.18c.25,0,.46-.06,.63-.18s.25-.29,.25-.51v-1.39c0-.22-.08-.39-.25-.51s-.37-.18-.63-.18-.46,.09-.63,.27-.25,.42-.25,.72v.82c0,.3,.08,.54,.25,.72s.37,.27,.63,.27Z"></path><path class="cls-1" d="M18.32,105.99c-.35,0-.67-.06-.94-.17-.28-.12-.51-.28-.69-.5s-.33-.47-.42-.78c-.1-.31-.14-.65-.14-1.03s.05-.72,.14-1.02c.1-.3,.24-.56,.42-.78s.42-.38,.69-.5,.59-.17,.94-.17c.48,0,.88,.11,1.2,.32,.32,.22,.55,.52,.69,.91l-1.08,.47c-.04-.18-.13-.33-.26-.46-.13-.13-.31-.19-.55-.19-.27,0-.47,.09-.61,.27s-.21,.42-.21,.72v.88c0,.3,.07,.54,.21,.71s.34,.26,.61,.26c.24,0,.43-.06,.57-.19,.14-.13,.24-.3,.31-.51l1.03,.45c-.16,.45-.4,.78-.72,.99-.33,.21-.72,.31-1.19,.31Z"></path><path class="cls-1" d="M22.93,105.99c-.35,0-.66-.06-.93-.17-.27-.11-.5-.28-.69-.5-.19-.22-.33-.48-.44-.78-.1-.31-.15-.65-.15-1.03s.05-.72,.15-1.03c.1-.31,.25-.57,.44-.78s.42-.38,.69-.49,.58-.17,.93-.17,.66,.06,.93,.17c.27,.11,.5,.28,.69,.49s.33,.47,.44,.78c.1,.31,.15,.65,.15,1.03s-.05,.72-.15,1.03c-.1,.31-.25,.57-.44,.78-.19,.22-.42,.38-.69,.5-.27,.11-.58,.17-.93,.17Zm0-1.05c.26,0,.47-.08,.61-.24s.22-.39,.22-.69v-.96c0-.3-.07-.53-.22-.69s-.35-.24-.61-.24-.47,.08-.61,.24c-.14,.16-.22,.39-.22,.69v.96c0,.3,.07,.53,.22,.69,.14,.16,.35,.24,.61,.24Z"></path><path class="cls-1" d="M27.7,105.99c-.46,0-.84-.07-1.15-.22-.31-.15-.59-.36-.84-.63l.78-.79c.17,.19,.35,.33,.56,.44,.2,.11,.43,.16,.69,.16s.45-.04,.55-.12,.15-.19,.15-.33c0-.22-.16-.35-.48-.4l-.51-.06c-1.06-.13-1.59-.62-1.59-1.46,0-.23,.04-.44,.13-.63,.09-.19,.21-.35,.37-.49,.16-.14,.35-.24,.58-.32s.48-.11,.76-.11c.25,0,.46,.02,.65,.05,.19,.03,.36,.08,.5,.14,.15,.06,.28,.14,.41,.23,.12,.09,.24,.2,.36,.31l-.77,.78c-.15-.15-.32-.27-.51-.36s-.38-.13-.58-.13c-.23,0-.39,.04-.49,.11-.1,.07-.14,.17-.14,.29s.03,.22,.1,.29c.07,.07,.2,.12,.39,.15l.53,.07c1.04,.14,1.56,.61,1.56,1.42,0,.23-.05,.44-.14,.63-.1,.19-.23,.36-.41,.5-.18,.14-.39,.25-.64,.33-.25,.08-.53,.12-.83,.12Z"></path><path class="cls-1" d="M32.21,105.89c-.46,0-.81-.12-1.05-.35-.24-.23-.36-.58-.36-1.03v-2.31h-.67v-1.04h.33c.18,0,.3-.04,.37-.13,.07-.09,.1-.21,.1-.37v-.77h1.2v1.28h.94v1.04h-.94v2.66h.86v1.04h-.79Z"></path></g></g></g></g></g></g></svg> 